SplineFontDB: 3.1
FontName: Anton
FullName: Anton
FamilyName: Anton
Weight: Normal
Copyright: Copyright (c) 2011 by vernon adams. All rights reserved.
Version: 1.000
FONDName: Anton
ItalicAngle: 0
UnderlinePosition: -307
UnderlineWidth: 102
Ascent: 1638
Descent: 410
UFOAscent: 1769
UFODescent: -186
LayerCount: 2
Layer: 0 0 "Back"  1 0
Layer: 1 0 "Fore"  0 0
FSType: 3
OS2Version: 0
OS2_WeightWidthSlopeOnly: 0
OS2_UseTypoMetrics: 0
CreationTime: 1351135323
ModificationTime: 1351135323
PfmFamily: 0
TTFWeight: 400
TTFWidth: 1
LineGap: 0
VLineGap: 0
Panose: 2 0 5 3 0 0 0 0 0 0
OS2TypoAscent: 1769
OS2TypoAOffset: 0
OS2TypoDescent: -186
OS2TypoDOffset: 0
OS2TypoLinegap: 127
OS2WinAscent: 2331
OS2WinAOffset: 0
OS2WinDescent: -631
OS2WinDOffset: 0
HheadAscent: 0
HheadAOffset: 1
HheadDescent: 0
HheadDOffset: 1
OS2SubXSize: 1434
OS2SubYSize: 1331
OS2SubXOff: 0
OS2SubYOff: 287
OS2SupXSize: 1434
OS2SupYSize: 1331
OS2SupXOff: 0
OS2SupYOff: 977
OS2StrikeYSize: 102
OS2StrikeYPos: 512
OS2Vendor: 'newt'
OS2CodePages: 20000001.00000000
OS2UnicodeRanges: 800000ef.5000204b.00000000.00000000
DEI: 91125
LangName: 1033 "" "" "" "vernonadams: Anton: 2011" "" "Version 1.000" "" "Anton is a trademark of vernon adams." "vernon adams" "" "Copyright (c) 2011 by vernon adams. All rights reserved." "" "" "" "" "" "" "" "Anton" 
PickledData: "(dp1
S'com.typemytype.robofont.compileSettings.autohint'
p2
I0
sS'com.typemytype.robofont.compileSettings.decompose'
p3
I1
sS'com.typemytype.robofont.foreground.layerStrokeColor'
p4
(F0.5
F0
F0.5
F0.69999999999999996
tp5
sS'com.typemytype.robofont.guides'
p6
((dp7
S'angle'
p8
I0
sS'name'
p9
NsS'magnetic'
p10
I5
sS'isGlobal'
p11
I1
sS'y'
I1466
sS'x'
I552
s(dp12
g8
I0
sg9
Nsg10
I5
sg11
I1
sS'y'
I294
sS'x'
I552
s(dp13
g8
I0
sg9
Nsg10
I5
sg11
I1
sS'y'
I1781
sS'x'
I558
s(dp14
g8
I0
sg9
Nsg10
I5
sg11
I1
sS'y'
I-21
sS'x'
I552
stp15
sS'com.typemytype.robofont.compileSettings.path'
p16
S'/Users/vern/GitHub/AntonFont/in-progress/src/Anton.otf'
p17

StartChar: A
Encoding: 65 65 1
Width: 970
VWidth: 0
Flags: W
PickledData: "(dp1
S'com.typemytype.robofont.layerData'
p2
(dp3
s."
LayerCount: 2
Fore
SplineSet
32 0 m 1
 208 1761 l 1
 759 1761 l 1
 939 0 l 1
 623 0 l 1
 598 265 l 1
 386 265 l 1
 364 0 l 1
 32 0 l 1
411 585 m 1
 571 585 l 1
 504 1501 l 1
 468 1501 l 1
 411 585 l 1
EndSplineSet
EndChar

StartChar: AE
Encoding: 198 198 2
Width: 1311
VWidth: 0
Flags: W
PickledData: "(dp1
S'com.typemytype.robofont.layerData'
p2
(dp3
s."
LayerCount: 2
Fore
SplineSet
1272 311 m 1
 1272 0 l 1
 605 0 l 1
 604 120 l 1
 604 240 l 1
 396 240 l 1
 357 0 l 1
 16 0 l 1
 337 1593 l 1
 1249 1593 l 1
 1249 1284 l 1
 963 1284 l 1
 963 973 l 1
 1235 973 l 1
 1235 674 l 1
 963 674 l 1
 963 311 l 1
 1272 311 l 1
442 530 m 1
 600 530 l 1
 600 1294 l 1
 572 1294 l 1
 442 530 l 1
EndSplineSet
EndChar

StartChar: B
Encoding: 66 66 9
Width: 1067
VWidth: 0
Flags: W
PickledData: "(dp1
S'com.typemytype.robofont.layerData'
p2
(dp3
s."
LayerCount: 2
Fore
SplineSet
992 569 m 0
 992 226 915 0 605 0 c 2
 128 0 l 1
 128 1761 l 1
 605 1761 l 2
 861 1761 972 1646 972 1359 c 2
 972 1281 l 2
 972 1116 913 1011 792 979 c 1
 950 939 992 781 992 569 c 0
644 400 m 2
 644 676 l 2
 644 776 620 828 537 828 c 2
 472 828 l 1
 472 270 l 1
 507 270 l 2
 598 270 644 314 644 400 c 2
472 1490 m 1
 472 1093 l 1
 544 1093 l 2
 609 1093 621 1151 621 1222 c 2
 621 1405 l 2
 621 1462 596 1490 546 1490 c 2
 472 1490 l 1
EndSplineSet
EndChar

StartChar: C
Encoding: 67 67 10
Width: 1076
VWidth: 0
Flags: W
PickledData: "(dp1
S'com.typemytype.robofont.layerData'
p2
(dp3
s."
LayerCount: 2
Fore
SplineSet
544 294 m 0
 604 294 631 341 631 420 c 2
 631 758 l 1
 987 758 l 1
 987 425 l 2
 987 116 819 -21 539 -21 c 0
 284 -21 105 151 105 436 c 2
 105 1254 l 2
 105 1595 242 1781 547 1781 c 0
 797 1781 979 1645 979 1368 c 2
 979 1058 l 1
 631 1058 l 1
 631 1324 l 2
 631 1429 607 1466 551 1466 c 0
 481 1466 465 1404 465 1326 c 2
 465 414 l 2
 465 339 490 294 544 294 c 0
EndSplineSet
EndChar

StartChar: D
Encoding: 68 68 12
Width: 1115
VWidth: 0
Flags: W
PickledData: "(dp1
S'com.typemytype.robofont.layerData'
p2
(dp3
s."
LayerCount: 2
Fore
SplineSet
1010 1347 m 2
 1010 522 l 2
 1010 189 899 0 607 0 c 2
 128 0 l 1
 128 1761 l 1
 619 1761 l 2
 872 1761 1010 1617 1010 1347 c 2
650 364 m 2
 650 1323 l 2
 650 1440 627 1490 527 1490 c 2
 488 1490 l 1
 488 270 l 1
 549 270 l 2
 616 270 650 301 650 364 c 2
EndSplineSet
EndChar

StartChar: E
Encoding: 69 69 13
Width: 928
VWidth: 0
Flags: W
PickledData: "(dp1
S'com.typemytype.robofont.layerData'
p2
(dp3
s."
LayerCount: 2
Fore
SplineSet
857 319 m 1
 857 0 l 1
 128 0 l 1
 128 1761 l 1
 834 1761 l 1
 834 1429 l 1
 488 1429 l 1
 488 1077 l 1
 820 1077 l 1
 820 746 l 1
 488 746 l 1
 488 319 l 1
 857 319 l 1
EndSplineSet
EndChar

StartChar: Euro
Encoding: 8364 8364 18
Width: 1075
VWidth: 0
Flags: W
PickledData: "(dp1
S'com.typemytype.robofont.layerData'
p2
(dp3
s."
LayerCount: 2
Fore
SplineSet
606 -18 m 0
 308 -18 140 179 140 482 c 2
 140 559 l 1
 40 559 l 1
 40 791 l 1
 140 791 l 1
 140 942 l 1
 40 942 l 1
 40 1166 l 1
 140 1166 l 1
 140 1231 l 2
 140 1552 292 1729 606 1729 c 0
 904 1729 1037 1549 1042 1245 c 1
 693 1246 l 1
 693 1273 l 2
 693 1353 686 1424 606 1424 c 0
 526 1424 519 1353 519 1273 c 2
 519 1166 l 1
 834 1166 l 1
 834 942 l 1
 519 942 l 1
 519 791 l 1
 834 791 l 1
 834 559 l 1
 519 559 l 1
 519 447 l 2
 519 386 552 330 606 330 c 0
 660 330 693 386 693 447 c 2
 693 469 l 1
 1042 475 l 1
 1040 186 889 -18 606 -18 c 0
EndSplineSet
EndChar

StartChar: F
Encoding: 70 70 19
Width: 919
VWidth: 0
Flags: W
PickledData: "(dp1
S'com.typemytype.robofont.layerData'
p2
(dp3
s."
LayerCount: 2
Fore
SplineSet
488 778 m 1
 488 0 l 1
 128 0 l 1
 128 1761 l 1
 838 1761 l 1
 838 1423 l 1
 488 1423 l 1
 488 1110 l 1
 806 1110 l 1
 806 778 l 1
 488 778 l 1
EndSplineSet
EndChar

StartChar: G
Encoding: 71 71 20
Width: 1083
VWidth: 0
Flags: W
PickledData: "(dp1
S'com.typemytype.robofont.layerData'
p2
(dp3
S'b'
(dp4
S'name'
p5
S'G'
sS'lib'
p6
(dp7
sS'unicodes'
p8
(tsS'width'
p9
I1083
sS'contours'
p10
((dp11
S'points'
p12
((dp13
S'segmentType'
p14
S'curve'
p15
sS'x'
F544
sS'smooth'
p16
I01
sS'y'
F294
s(dp17
S'y'
F294
sS'x'
F604
sg16
I00
s(dp18
S'y'
F341
sS'x'
F631
sg16
I00
s(dp19
g14
S'curve'
p20
sS'x'
F631
sg16
I01
sS'y'
F420
s(dp21
g14
S'line'
p22
sS'x'
F631
sg16
I00
sS'y'
F758
s(dp23
g14
S'line'
p24
sS'x'
F987
sg16
I00
sS'y'
F758
s(dp25
g14
S'line'
p26
sS'x'
F987
sg16
I01
sS'y'
F425
s(dp27
S'y'
F116
sS'x'
F987
sg16
I00
s(dp28
S'y'
F-21
sS'x'
F819
sg16
I00
s(dp29
g14
S'curve'
p30
sS'x'
F539
sg16
I01
sS'y'
F-21
s(dp31
S'y'
F-21
sS'x'
F284
sg16
I00
s(dp32
S'y'
F151
sS'x'
F105
sg16
I00
s(dp33
g14
S'curve'
p34
sS'x'
F105
sg16
I01
sS'y'
F436
s(dp35
g14
S'line'
p36
sS'x'
F105
sg16
I01
sS'y'
F1254
s(dp37
S'y'
F1595
sS'x'
F105
sg16
I00
s(dp38
S'y'
F1781
sS'x'
F242
sg16
I00
s(dp39
g14
S'curve'
p40
sS'x'
F547
sg16
I01
sS'y'
F1781
s(dp41
S'y'
F1781
sS'x'
F797
sg16
I00
s(dp42
S'y'
F1645
sS'x'
F979
sg16
I00
s(dp43
g14
S'curve'
p44
sS'x'
F979
sg16
I01
sS'y'
F1368
s(dp45
g14
S'line'
p46
sS'x'
F979
sg16
I00
sS'y'
F1058
s(dp47
g14
S'line'
p48
sS'x'
F631
sg16
I00
sS'y'
F1058
s(dp49
g14
S'line'
p50
sS'x'
F631
sg16
I01
sS'y'
F1324
s(dp51
S'y'
F1429
sS'x'
F631
sg16
I00
s(dp52
S'y'
F1466
sS'x'
F607
sg16
I00
s(dp53
g14
S'curve'
p54
sS'x'
F551
sg16
I01
sS'y'
F1466
s(dp55
S'y'
F1466
sS'x'
F481
sg16
I00
s(dp56
S'y'
F1404
sS'x'
F465
sg16
I00
s(dp57
g14
S'curve'
p58
sS'x'
F465
sg16
I01
sS'y'
F1326
s(dp59
g14
S'line'
p60
sS'x'
F465
sg16
I01
sS'y'
F414
s(dp61
S'y'
F339
sS'x'
F465
sg16
I00
s(dp62
S'y'
F294
sS'x'
F490
sg16
I00
stp63
stp64
sS'components'
p65
(tsS'anchors'
p66
(tsss."
LayerCount: 2
Fore
SplineSet
549 294 m 0
 638 294 641 353 641 517 c 2
 641 721 l 1
 547 721 l 1
 547 1025 l 1
 973 1025 l 1
 973 0 l 1
 836 0 l 1
 776 168 l 1
 732 25 617 -21 486 -21 c 0
 232 -21 105 161 105 524 c 2
 105 1289 l 2
 105 1614 253 1781 541 1781 c 0
 896 1781 977 1614 977 1168 c 1
 641 1168 l 1
 641 1275 l 2
 641 1414 626 1466 561 1466 c 0
 473 1466 465 1409 465 1281 c 2
 465 509 l 2
 465 363 467 294 549 294 c 0
EndSplineSet
EndChar

StartChar: H
Encoding: 72 72 21
Width: 1142
VWidth: 0
Flags: W
PickledData: "(dp1
S'com.typemytype.robofont.layerData'
p2
(dp3
s."
LayerCount: 2
Fore
SplineSet
654 0 m 1
 654 798 l 1
 488 798 l 1
 488 0 l 1
 128 0 l 1
 128 1761 l 1
 488 1761 l 1
 488 1100 l 1
 654 1100 l 1
 654 1761 l 1
 1014 1761 l 1
 1014 0 l 1
 654 0 l 1
EndSplineSet
EndChar

StartChar: I
Encoding: 73 73 22
Width: 616
VWidth: 0
Flags: W
PickledData: "(dp1
S'com.typemytype.robofont.layerData'
p2
(dp3
s."
LayerCount: 2
Fore
SplineSet
488 1761 m 1
 488 0 l 1
 128 0 l 1
 128 1761 l 1
 488 1761 l 1
EndSplineSet
EndChar

StartChar: J
Encoding: 74 74 29
Width: 1049
VWidth: 0
Flags: W
PickledData: "(dp1
S'com.typemytype.robofont.layerData'
p2
(dp3
s."
LayerCount: 2
Fore
SplineSet
560 1761 m 1
 921 1761 l 1
 921 440 l 2
 921 160 742 -21 491 -21 c 0
 252 -21 61 124 61 389 c 2
 61 830 l 1
 403 830 l 1
 403 402 l 2
 403 340 426 294 481 294 c 0
 534 294 560 333 560 418 c 2
 560 1761 l 1
EndSplineSet
EndChar

StartChar: K
Encoding: 75 75 31
Width: 1078
VWidth: 0
Flags: W
PickledData: "(dp1
S'com.typemytype.robofont.layerData'
p2
(dp3
s."
LayerCount: 2
Fore
SplineSet
476 1761 m 1
 476 995 l 1
 651 1761 l 1
 1005 1761 l 1
 797 894 l 1
 1045 0 l 1
 680 0 l 1
 478 792 l 1
 478 0 l 1
 128 0 l 1
 128 1761 l 1
 476 1761 l 1
EndSplineSet
EndChar

StartChar: L
Encoding: 76 76 32
Width: 870
VWidth: 0
Flags: W
PickledData: "(dp1
S'com.typemytype.robofont.layerData'
p2
(dp3
s."
LayerCount: 2
Fore
SplineSet
842 294 m 1
 842 0 l 1
 128 0 l 1
 128 1761 l 1
 480 1761 l 1
 480 294 l 1
 842 294 l 1
EndSplineSet
EndChar

StartChar: Lslash
Encoding: 321 321 34
Width: 853
VWidth: 0
Flags: W
PickledData: "(dp1
S'com.typemytype.robofont.layerData'
p2
(dp3
s."
LayerCount: 2
Fore
SplineSet
823 311 m 1
 823 0 l 1
 109 0 l 1
 109 1593 l 1
 461 1593 l 1
 461 311 l 1
 823 311 l 1
726 973 m 1
 726 741 l 1
 39 509 l 1
 39 741 l 1
 726 973 l 1
EndSplineSet
EndChar

StartChar: M
Encoding: 77 77 35
Width: 1628
VWidth: 0
Flags: W
PickledData: "(dp1
S'com.typemytype.robofont.layerData'
p2
(dp3
s."
LayerCount: 2
Fore
SplineSet
1178 0 m 1
 1178 1268 l 1
 976 0 l 1
 660 0 l 1
 446 1268 l 1
 446 0 l 1
 128 0 l 1
 128 1761 l 1
 664 1761 l 1
 812 687 l 1
 959 1761 l 1
 1500 1761 l 1
 1500 0 l 1
 1178 0 l 1
EndSplineSet
EndChar

StartChar: N
Encoding: 78 78 36
Width: 1156
VWidth: 0
Flags: W
PickledData: "(dp1
S'com.typemytype.robofont.layerData'
p2
(dp3
s."
LayerCount: 2
Fore
SplineSet
698 947 m 1
 698 1761 l 1
 1028 1761 l 1
 1028 0 l 1
 720 0 l 1
 458 860 l 1
 458 0 l 1
 128 0 l 1
 128 1761 l 1
 450 1761 l 1
 698 947 l 1
EndSplineSet
EndChar

StartChar: O
Encoding: 79 79 39
Width: 1096
VWidth: 0
Flags: W
PickledData: "(dp1
S'com.typemytype.robofont.guides'
p2
(tsS'com.typemytype.robofont.layerData'
p3
(dp4
s."
LayerCount: 2
Fore
SplineSet
551 -21 m 0
 263 -21 105 162 105 475 c 2
 105 1316 l 2
 105 1619 269 1781 551 1781 c 0
 833 1781 991 1619 991 1316 c 2
 991 475 l 2
 991 162 839 -21 551 -21 c 0
465 1323 m 2
 465 480 l 2
 465 388 469 294 551 294 c 0
 628 294 631 395 631 480 c 2
 631 1322 l 2
 631 1389 621 1466 551 1466 c 0
 483 1466 465 1398 465 1323 c 2
EndSplineSet
EndChar

StartChar: OE
Encoding: 338 338 40
Width: 1330
VWidth: 0
Flags: W
PickledData: "(dp1
S'com.typemytype.robofont.layerData'
p2
(dp3
s."
LayerCount: 2
Fore
SplineSet
50 430 m 2
 50 1189 l 2
 50 1498 273 1593 598 1593 c 2
 1268 1593 l 1
 1268 1284 l 1
 931 1284 l 1
 931 973 l 1
 1254 973 l 1
 1254 674 l 1
 931 674 l 1
 931 311 l 1
 1291 311 l 1
 1291 0 l 1
 606 0 l 2
 235 0 50 143 50 430 c 2
519 1289 m 0
 440 1289 398 1232 398 1147 c 2
 398 477 l 2
 398 384 431 308 513 308 c 0
 533 308 553 313 574 322 c 1
 574 1280 l 1
 556 1286 538 1289 519 1289 c 0
EndSplineSet
EndChar

StartChar: Oacute
Encoding: 211 211 41
Width: 969
VWidth: 0
Flags: W
PickledData: "(dp1
S'com.typemytype.robofont.layerData'
p2
(dp3
s."
LayerCount: 2
Fore
SplineSet
484 -18 m 0
 196 -18 50 146 50 430 c 2
 50 1189 l 2
 50 1464 202 1607 484 1607 c 0
 766 1607 918 1464 918 1189 c 2
 918 430 l 2
 918 146 772 -18 484 -18 c 0
398 1166 m 2
 398 477 l 2
 398 395 402 297 484 297 c 0
 561 297 564 388 564 465 c 2
 564 1113 l 2
 564 1198 571 1295 484 1295 c 0
 416 1295 398 1233 398 1166 c 2
691 2086 m 1
 691 1739 l 1
 216 1645 l 1
 216 1868 l 1
 691 2086 l 1
EndSplineSet
EndChar

StartChar: Ocircumflex
Encoding: 212 212 42
Width: 986
VWidth: 0
Flags: W
PickledData: "(dp1
S'com.typemytype.robofont.layerData'
p2
(dp3
s."
LayerCount: 2
Fore
SplineSet
495 -18 m 0
 207 -18 61 146 61 430 c 2
 61 1189 l 2
 61 1464 213 1607 495 1607 c 0
 777 1607 929 1464 929 1189 c 2
 929 430 l 2
 929 146 783 -18 495 -18 c 0
409 1166 m 2
 409 477 l 2
 409 395 413 297 495 297 c 0
 572 297 575 388 575 465 c 2
 575 1113 l 2
 575 1198 582 1295 495 1295 c 0
 427 1295 409 1233 409 1166 c 2
46 1683 m 1
 287 2086 l 1
 695 2086 l 1
 936 1683 l 1
 577 1683 l 1
 491 1968 l 1
 405 1683 l 1
 46 1683 l 1
EndSplineSet
EndChar

StartChar: Odieresis
Encoding: 214 214 43
Width: 973
VWidth: 0
Flags: W
PickledData: "(dp1
S'com.typemytype.robofont.layerData'
p2
(dp3
s."
LayerCount: 2
Fore
SplineSet
486 -18 m 0
 198 -18 52 146 52 430 c 2
 52 1189 l 2
 52 1464 204 1607 486 1607 c 0
 768 1607 920 1464 920 1189 c 2
 920 430 l 2
 920 146 774 -18 486 -18 c 0
400 1166 m 2
 400 477 l 2
 400 395 404 297 486 297 c 0
 563 297 566 388 566 465 c 2
 566 1113 l 2
 566 1198 573 1295 486 1295 c 0
 418 1295 400 1233 400 1166 c 2
419 1981 m 1
 419 1683 l 1
 61 1683 l 1
 61 1981 l 1
 419 1981 l 1
903 1981 m 1
 903 1683 l 1
 545 1683 l 1
 545 1981 l 1
 903 1981 l 1
EndSplineSet
EndChar

StartChar: Omega
Encoding: 937 937 45
Width: 992
VWidth: 0
Flags: W
PickledData: "(dp1
S'com.typemytype.robofont.layerData'
p2
(dp3
s."
LayerCount: 2
Fore
SplineSet
496 1607 m 0
 774 1607 920 1462 920 1189 c 2
 920 710 l 2
 920 499 888 345 823 246 c 1
 945 246 l 1
 945 0 l 1
 529 0 l 1
 529 247 l 1
 604 285 581 431 581 581 c 2
 581 1211 l 2
 581 1281 565 1335 496 1335 c 0
 427 1335 411 1281 411 1211 c 2
 411 581 l 2
 411 441 399 282 463 247 c 1
 463 0 l 1
 47 0 l 1
 47 246 l 1
 169 246 l 1
 104 345 72 499 72 710 c 2
 72 1189 l 2
 72 1462 218 1607 496 1607 c 0
EndSplineSet
EndChar

StartChar: Oslash
Encoding: 216 216 46
Width: 750
VWidth: 0
Flags: W
PickledData: "(dp1
S'com.typemytype.robofont.layerData'
p2
(dp3
s."
LayerCount: 2
Fore
SplineSet
20 -122 m 1
 147 326 l 1
 246 240 l 1
 132 -162 l 1
 20 -122 l 1
741 1981 m 1
 607 1510 l 1
 496 1560 l 1
 624 2014 l 1
 741 1981 l 1
EndSplineSet
Refer: 39 79 N 1 0 0 1 0 0 2
EndChar

StartChar: Otilde
Encoding: 213 213 47
Width: 974
VWidth: 0
Flags: W
PickledData: "(dp1
S'com.typemytype.robofont.layerData'
p2
(dp3
s."
LayerCount: 2
Fore
SplineSet
488 -18 m 0
 200 -18 54 146 54 430 c 2
 54 1189 l 2
 54 1464 206 1607 488 1607 c 0
 770 1607 922 1464 922 1189 c 2
 922 430 l 2
 922 146 776 -18 488 -18 c 0
402 1166 m 2
 402 477 l 2
 402 395 406 297 488 297 c 0
 565 297 568 388 568 465 c 2
 568 1113 l 2
 568 1198 575 1295 488 1295 c 0
 420 1295 402 1233 402 1166 c 2
589 1694 m 0
 479 1694 446 1804 347 1804 c 0
 326 1804 306 1774 289 1715 c 1
 67 1821 l 1
 121 1953 191 2080 347 2080 c 0
 441 2080 501 1972 590 1972 c 0
 612 1972 632 1998 649 2051 c 1
 881 1995 l 1
 827 1848 754 1694 589 1694 c 0
EndSplineSet
EndChar

StartChar: P
Encoding: 80 80 48
Width: 1070
VWidth: 0
Flags: W
PickledData: "(dp1
S'com.typemytype.robofont.layerData'
p2
(dp3
s."
LayerCount: 2
Fore
SplineSet
1010 1224 m 0
 1010 903 923 697 631 697 c 2
 488 697 l 1
 488 0 l 1
 128 0 l 1
 128 1761 l 1
 607 1761 l 2
 899 1761 1010 1600 1010 1224 c 0
650 1230 m 0
 650 1391 640 1490 527 1490 c 2
 488 1490 l 1
 488 993 l 1
 528 993 l 2
 642 993 650 1061 650 1230 c 0
EndSplineSet
EndChar

StartChar: Q
Encoding: 81 81 49
Width: 1114
VWidth: 0
Flags: W
PickledData: "(dp1
S'com.typemytype.robofont.layerData'
p2
(dp3
s."
LayerCount: 2
Fore
SplineSet
897 -237 m 1
 1046 -28 l 1
 882 113 l 1
 954 198 991 321 991 475 c 2
 991 1316 l 2
 991 1619 833 1781 551 1781 c 0
 269 1781 105 1619 105 1316 c 2
 105 475 l 2
 105 162 263 -21 551 -21 c 0
 581 -21 609 -19 636 -15 c 1
 897 -237 l 1
551 1466 m 0
 621 1466 631 1389 631 1322 c 2
 631 480 l 2
 631 395 628 294 551 294 c 0
 469 294 465 388 465 480 c 2
 465 1323 l 2
 465 1398 483 1466 551 1466 c 0
EndSplineSet
EndChar

StartChar: R
Encoding: 82 82 50
Width: 1101
VWidth: 0
Flags: W
PickledData: "(dp1
S'com.typemytype.robofont.layerData'
p2
(dp3
s."
LayerCount: 2
Fore
SplineSet
842 938 m 1
 952 915 1008 805 1008 666 c 0
 1008 375 1007 151 1004 0 c 1
 646 0 l 1
 646 689 l 2
 646 792 579 803 486 803 c 1
 486 0 l 1
 128 0 l 1
 128 1761 l 1
 680 1761 l 2
 950 1761 1006 1565 1006 1268 c 0
 1006 1076 976 982 842 938 c 1
646 1305 m 0
 646 1442 639 1490 521 1490 c 2
 488 1490 l 1
 488 1094 l 1
 556 1094 l 2
 632 1094 646 1154 646 1305 c 0
EndSplineSet
EndChar

StartChar: S
Encoding: 83 83 54
Width: 1003
VWidth: 0
Flags: W
PickledData: "(dp1
S'com.typemytype.robofont.layerData'
p2
(dp3
s."
LayerCount: 2
Fore
SplineSet
945 513 m 0
 945 182 850 -21 525 -21 c 0
 203 -21 81 136 81 486 c 2
 81 658 l 1
 429 658 l 1
 429 442 l 2
 429 329 457 294 513 294 c 0
 569 294 597 340 597 406 c 0
 597 588 547 649 410 783 c 2
 261 928 l 1
 141 1041 81 1172 81 1315 c 0
 81 1615 224 1781 488 1781 c 2
 505 1781 l 2
 809 1781 933 1620 933 1230 c 1
 576 1230 l 1
 576 1353 l 2
 576 1445 538 1466 502 1466 c 0
 456 1466 418 1444 418 1375 c 0
 418 1326 427 1275 517 1189 c 2
 715 998 l 2
 836 881 945 782 945 513 c 0
EndSplineSet
EndChar

StartChar: T
Encoding: 84 84 57
Width: 811
VWidth: 0
Flags: W
PickledData: "(dp1
S'com.typemytype.robofont.layerData'
p2
(dp3
s."
LayerCount: 2
Fore
SplineSet
225 1439 m 1
 20 1439 l 1
 20 1761 l 1
 790 1761 l 1
 790 1439 l 1
 585 1439 l 1
 585 0 l 1
 225 0 l 1
 225 1439 l 1
EndSplineSet
EndChar

StartChar: Thorn
Encoding: 222 222 59
Width: 947
VWidth: 0
Flags: W
PickledData: "(dp1
S'com.typemytype.robofont.layerData'
p2
(dp3
s."
LayerCount: 2
Fore
SplineSet
918 875 m 0
 918 568 856 336 551 336 c 2
 408 336 l 1
 408 0 l 1
 62 0 l 1
 62 1593 l 1
 407 1593 l 1
 407 1418 l 1
 527 1418 l 2
 835 1418 918 1193 918 875 c 0
570 881 m 0
 570 1023 562 1128 447 1128 c 2
 408 1128 l 1
 408 623 l 1
 428 623 l 2
 572 623 570 735 570 881 c 0
EndSplineSet
EndChar

StartChar: U
Encoding: 85 85 60
Width: 1114
VWidth: 0
Flags: W
PickledData: "(dp1
S'com.typemytype.robofont.layerData'
p2
(dp3
s."
LayerCount: 2
Fore
SplineSet
558 -21 m 0
 265 -21 112 146 112 466 c 2
 112 1761 l 1
 472 1761 l 1
 472 471 l 2
 472 383 476 294 556 294 c 0
 637 294 642 382 642 471 c 2
 642 1761 l 1
 1002 1761 l 1
 1002 466 l 2
 1002 146 851 -21 558 -21 c 0
EndSplineSet
EndChar

StartChar: V
Encoding: 86 86 65
Width: 952
VWidth: 0
Flags: W
PickledData: "(dp1
S'com.typemytype.robofont.layerData'
p2
(dp3
s."
LayerCount: 2
Fore
SplineSet
598 1761 m 1
 933 1761 l 1
 676 0 l 1
 266 0 l 1
 19 1761 l 1
 354 1761 l 1
 483 542 l 1
 598 1761 l 1
EndSplineSet
EndChar

StartChar: W
Encoding: 87 87 66
Width: 1420
VWidth: 0
Flags: W
PickledData: "(dp1
S'com.typemytype.robofont.layerData'
p2
(dp3
s."
LayerCount: 2
Fore
SplineSet
48 1761 m 1
 372 1761 l 1
 459 649 l 1
 568 1761 l 1
 856 1761 l 1
 960 649 l 1
 1044 1761 l 1
 1372 1761 l 1
 1180 0 l 1
 818 0 l 1
 710 937 l 1
 606 0 l 1
 237 0 l 1
 48 1761 l 1
EndSplineSet
EndChar

StartChar: X
Encoding: 88 88 67
Width: 991
VWidth: 0
Flags: W
PickledData: "(dp1
S'com.typemytype.robofont.layerData'
p2
(dp3
s."
LayerCount: 2
Fore
SplineSet
965 0 m 1
 609 0 l 1
 498 688 l 1
 384 0 l 1
 27 0 l 1
 216 933 l 1
 66 1761 l 1
 410 1761 l 1
 501 1156 l 1
 582 1761 l 1
 927 1761 l 1
 777 933 l 1
 965 0 l 1
EndSplineSet
EndChar

StartChar: Y
Encoding: 89 89 68
Width: 914
VWidth: 0
Flags: W
PickledData: "(dp1
S'com.typemytype.robofont.layerData'
p2
(dp3
s."
LayerCount: 2
Fore
SplineSet
903 1761 m 1
 623 579 l 1
 623 0 l 1
 291 0 l 1
 291 579 l 1
 10 1761 l 1
 359 1761 l 1
 457 1164 l 1
 555 1761 l 1
 903 1761 l 1
EndSplineSet
EndChar

StartChar: Z
Encoding: 90 90 71
Width: 879
VWidth: 0
Flags: W
PickledData: "(dp1
S'com.typemytype.robofont.layerData'
p2
(dp3
s."
LayerCount: 2
Fore
SplineSet
828 338 m 1
 828 0 l 1
 32 0 l 1
 32 334 l 1
 454 1421 l 1
 71 1421 l 1
 71 1761 l 1
 845 1761 l 1
 845 1433 l 1
 415 338 l 1
 828 338 l 1
EndSplineSet
EndChar

StartChar: a
Encoding: 97 97 73
Width: 1094
VWidth: 0
Flags: W
PickledData: "(dp1
S'com.typemytype.robofont.layerData'
p2
(dp3
s."
LayerCount: 2
Fore
SplineSet
404 -18 m 0
 154 -18 100 174 100 430 c 0
 100 839 286 854 622 969 c 1
 622 972 l 2
 622 998 622 1102 622 1123 c 0
 622 1213 602 1236 557 1239 c 0
 492 1243 471 1201 471 1146 c 2
 471 1056 l 1
 122 1056 l 1
 122 1105 l 2
 122 1403 257 1518 563 1518 c 0
 803 1518 987 1387 987 1143 c 2
 987 0 l 1
 629 0 l 1
 629 178 l 1
 594 53 507 -18 404 -18 c 0
622 379 m 2
 622 797 l 1
 523 757 465 705 465 588 c 2
 465 395 l 2
 465 306 492 262 545 262 c 0
 603 262 622 322 622 379 c 2
EndSplineSet
EndChar

StartChar: acute
Encoding: 180 180 76
Width: 650
VWidth: 0
Flags: W
PickledData: "(dp1
S'com.typemytype.robofont.layerData'
p2
(dp3
s."
LayerCount: 2
Fore
SplineSet
41 1553 m 1
 41 1776 l 1
 516 1994 l 1
 516 1647 l 1
 41 1553 l 1
EndSplineSet
EndChar

StartChar: ae
Encoding: 230 230 78
Width: 1497
VWidth: 0
Flags: W
PickledData: "(dp1
S'com.typemytype.robofont.layerData'
p2
(dp3
s."
LayerCount: 2
Fore
SplineSet
1090 579 m 1
 1446 579 l 1
 1446 494 l 2
 1446 172 1358 -18 1036 -18 c 0
 896 -18 789 53 748 148 c 1
 702 51 598 -18 449 -18 c 0
 182 -18 38 154 38 430 c 0
 38 839 224 865 560 980 c 1
 560 983 l 2
 560 1079 578 1239 483 1239 c 0
 434 1239 409 1212 409 1157 c 2
 409 1056 l 1
 61 1056 l 1
 60 1067 60 1084 60 1105 c 0
 60 1403 195 1518 501 1518 c 0
 610 1518 692 1477 747 1396 c 1
 800 1477 889 1518 1014 1518 c 0
 1302 1518 1446 1376 1446 1092 c 2
 1446 983 l 2
 1446 848 1445 755 1442 704 c 1
 921 704 l 1
 921 494 l 2
 921 338 950 260 1008 260 c 0
 1094 260 1092 394 1092 483 c 0
 1092 542 1091 574 1090 579 c 1
559 379 m 2
 559 774 l 1
 460 734 403 687 403 570 c 2
 403 395 l 2
 403 306 430 262 483 262 c 0
 541 262 559 322 559 379 c 2
1010 1249 m 0
 921 1249 921 1167 921 1052 c 2
 921 931 l 1
 1090 931 l 1
 1090 1087 l 2
 1090 1195 1063 1249 1010 1249 c 0
EndSplineSet
EndChar

StartChar: ampersand
Encoding: 38 38 80
Width: 1035
VWidth: 0
Flags: W
PickledData: "(dp1
S'com.typemytype.robofont.layerData'
p2
(dp3
s."
LayerCount: 2
Fore
SplineSet
356 -21 m 0
 137 -21 35 158 35 386 c 0
 35 661 114 804 273 921 c 1
 228 1010 173 1143 173 1262 c 0
 173 1464 322 1582 521 1582 c 0
 717 1582 866 1472 866 1273 c 0
 866 1133 788 1000 631 875 c 1
 694 726 l 1
 733 827 791 906 866 961 c 1
 1005 744 l 1
 927 682 861 578 808 432 c 1
 987 0 l 1
 647 0 l 1
 610 97 l 1
 558 32 466 -21 356 -21 c 0
341 423 m 2
 341 413 l 2
 341 341 341 235 412 235 c 0
 469 235 502 289 513 334 c 1
 391 625 l 1
 379 606 l 1
 355 572 341 488 341 423 c 2
551 1336 m 0
 517 1336 497 1307 497 1273 c 0
 497 1237 511 1183 540 1110 c 1
 557 1128 l 2
 582 1155 610 1219 610 1273 c 0
 610 1315 590 1336 551 1336 c 0
EndSplineSet
EndChar

StartChar: approxequal
Encoding: 8776 8776 81
Width: 1009
VWidth: 0
Flags: W
PickledData: "(dp1
S'com.typemytype.robofont.layerData'
p2
(dp3
s."
LayerCount: 2
Fore
SplineSet
639 776 m 0
 514 776 470 886 357 886 c 0
 328 886 302 860 279 807 c 1
 37 923 l 1
 118 1122 228 1222 367 1222 c 0
 475 1222 548 1114 650 1114 c 0
 679 1114 706 1140 729 1193 c 1
 971 1077 l 1
 889 876 778 776 639 776 c 0
EndSplineSet
EndChar

StartChar: asciicircum
Encoding: 94 94 83
Width: 970
VWidth: 0
Flags: W
PickledData: "(dp1
S'com.typemytype.robofont.layerData'
p2
(dp3
s."
LayerCount: 2
Fore
SplineSet
689 1355 m 1
 930 432 l 1
 571 432 l 1
 485 1027 l 1
 399 432 l 1
 40 432 l 1
 281 1355 l 1
 689 1355 l 1
EndSplineSet
EndChar

StartChar: asciitilde
Encoding: 126 126 84
Width: 1009
VWidth: 0
Flags: W
PickledData: "(dp1
S'com.typemytype.robofont.layerData'
p2
(dp3
s."
LayerCount: 2
Fore
SplineSet
639 776 m 0
 514 776 470 886 357 886 c 0
 328 886 302 860 279 807 c 1
 37 923 l 1
 118 1122 228 1222 367 1222 c 0
 475 1222 548 1114 650 1114 c 0
 679 1114 706 1140 729 1193 c 1
 971 1077 l 1
 889 876 778 776 639 776 c 0
EndSplineSet
EndChar

StartChar: asterisk
Encoding: 42 42 85
Width: 926
VWidth: 0
Flags: W
PickledData: "(dp1
S'com.typemytype.robofont.layerData'
p2
(dp3
s."
LayerCount: 2
Fore
SplineSet
310 1171 m 1
 36 1280 l 1
 152 1480 l 1
 390 1301 l 1
 347 1593 l 1
 579 1593 l 1
 544 1307 l 1
 774 1480 l 1
 890 1280 l 1
 615 1171 l 1
 890 1054 l 1
 774 854 l 1
 543 1036 l 1
 579 741 l 1
 347 741 l 1
 391 1043 l 1
 152 854 l 1
 36 1054 l 1
 310 1171 l 1
EndSplineSet
EndChar

StartChar: at
Encoding: 64 64 86
Width: 1811
VWidth: 0
Flags: W
PickledData: "(dp1
S'com.typemytype.robofont.layerData'
p2
(dp3
s."
LayerCount: 2
Fore
SplineSet
974 687 m 2
 974 972 l 1
 822 972 818 869 818 718 c 0
 818 644 835 570 898 570 c 0
 956 570 974 630 974 687 c 2
354 723 m 0
 354 351 503 206 871 206 c 0
 945 206 1037 212 1147 224 c 1
 1191 -37 l 1
 1066 -55 958 -64 866 -64 c 0
 316 -64 37 187 37 726 c 0
 37 1377 358 1630 1008 1630 c 0
 1492 1630 1777 1343 1777 867 c 0
 1777 535 1665 268 1361 268 c 0
 1157 268 1048 337 1000 494 c 1
 960 382 875 326 744 326 c 0
 549 326 483 512 483 718 c 0
 483 978 555 1209 782 1209 c 0
 852 1209 923 1177 995 1114 c 1
 1035 1226 l 1
 1296 1226 l 1
 1296 621 l 2
 1296 563 1326 497 1377 497 c 0
 1471 497 1491 763 1491 888 c 0
 1491 1193 1322 1365 1011 1365 c 0
 546 1365 354 1191 354 723 c 0
EndSplineSet
EndChar

StartChar: b
Encoding: 98 98 88
Width: 1098
VWidth: 0
Flags: W
PickledData: "(dp1
S'com.typemytype.robofont.layerData'
p2
(dp3
s."
LayerCount: 2
Fore
SplineSet
1000 1114 m 2
 1000 391 l 2
 1000 160 908 -18 684 -18 c 0
 587 -18 517 41 473 160 c 1
 473 0 l 1
 117 0 l 1
 117 1769 l 1
 473 1769 l 1
 473 1427 l 1
 533 1488 600 1519 673 1519 c 0
 917 1519 1000 1360 1000 1114 c 2
565 1239 m 0
 493 1239 473 1175 473 1085 c 2
 473 457 l 2
 473 349 484 263 567 263 c 0
 646 263 644 347 644 457 c 2
 644 1081 l 2
 644 1171 635 1239 565 1239 c 0
EndSplineSet
EndChar

StartChar: backslash
Encoding: 92 92 89
Width: 830
VWidth: 0
Flags: W
PickledData: "(dp1
S'com.typemytype.robofont.layerData'
p2
(dp3
s."
LayerCount: 2
Fore
SplineSet
391 1767 m 1
 801 0 l 1
 438 0 l 1
 27 1767 l 1
 391 1767 l 1
EndSplineSet
EndChar

StartChar: bar
Encoding: 124 124 90
Width: 443
VWidth: 0
Flags: W
PickledData: "(dp1
S'com.typemytype.robofont.layerData'
p2
(dp3
s."
LayerCount: 2
Fore
SplineSet
62 1683 m 1
 381 1683 l 1
 381 -84 l 1
 62 -84 l 1
 62 1683 l 1
EndSplineSet
EndChar

StartChar: braceleft
Encoding: 123 123 91
Width: 696
VWidth: 0
Flags: W
PickledData: "(dp1
S'com.typemytype.robofont.layerData'
p2
(dp3
s."
LayerCount: 2
Fore
SplineSet
31 669 m 1
 31 936 l 1
 143 957 170 1007 170 1140 c 2
 170 1225 l 2
 170 1504 374 1615 661 1623 c 1
 661 1356 l 1
 589 1351 522 1343 522 1272 c 0
 522 1027 479 914 352 802 c 1
 476 693 522 582 522 338 c 1
 517 263 591 254 661 249 c 1
 661 -18 l 1
 376 -10 170 95 170 370 c 2
 170 445 l 2
 170 585 149 646 31 669 c 1
EndSplineSet
EndChar

StartChar: braceright
Encoding: 125 125 92
Width: 697
VWidth: 0
Flags: W
PickledData: "(dp1
S'com.typemytype.robofont.layerData'
p2
(dp3
s."
LayerCount: 2
Fore
SplineSet
36 1356 m 1
 36 1623 l 1
 323 1615 527 1504 527 1225 c 2
 527 1140 l 2
 527 1007 554 957 666 936 c 1
 666 669 l 1
 548 646 527 585 527 445 c 2
 527 370 l 2
 527 95 321 -10 36 -18 c 1
 36 249 l 1
 110 254 175 262 175 338 c 0
 175 582 219 691 345 802 c 1
 220 912 175 1026 175 1272 c 0
 175 1343 108 1351 36 1356 c 1
EndSplineSet
EndChar

StartChar: bracketleft
Encoding: 91 91 93
Width: 651
VWidth: 0
Flags: W
PickledData: "(dp1
S'com.typemytype.robofont.layerData'
p2
(dp3
s."
LayerCount: 2
Fore
SplineSet
616 1761 m 1
 616 1480 l 1
 414 1480 l 1
 414 281 l 1
 616 281 l 1
 616 0 l 1
 62 0 l 1
 62 1761 l 1
 616 1761 l 1
EndSplineSet
EndChar

StartChar: bracketright
Encoding: 93 93 94
Width: 651
VWidth: 0
Flags: W
PickledData: "(dp1
S'com.typemytype.robofont.layerData'
p2
(dp3
s."
LayerCount: 2
Fore
SplineSet
35 281 m 1
 237 281 l 1
 237 1480 l 1
 35 1480 l 1
 35 1761 l 1
 589 1761 l 1
 589 0 l 1
 35 0 l 1
 35 281 l 1
EndSplineSet
EndChar

StartChar: breve
Encoding: 728 728 95
Width: 1015
VWidth: 0
Flags: W
PickledData: "(dp1
S'com.typemytype.robofont.layerData'
p2
(dp3
s."
LayerCount: 2
Fore
SplineSet
503 1832 m 0
 576.076 1832 618 1869.07 618 1944 c 0
 618 1944.67 723.333 1945 934 1945 c 1
 935.333 1929 936 1917.33 936 1910 c 0
 936 1687.29 740.732 1592 501 1592 c 0
 266.92 1592 69 1685.74 69 1903 c 0
 69 1917 70 1931 72 1945 c 1
 388 1944 l 1
 388 1869.06 429.915 1832 503 1832 c 0
EndSplineSet
EndChar

StartChar: brokenbar
Encoding: 166 166 96
Width: 455
VWidth: 0
Flags: W
PickledData: "(dp1
S'com.typemytype.robofont.layerData'
p2
(dp3
s."
LayerCount: 2
Fore
SplineSet
68 676 m 1
 387 676 l 1
 387 -84 l 1
 68 -84 l 1
 68 676 l 1
68 1683 m 1
 387 1683 l 1
 387 923 l 1
 68 923 l 1
 68 1683 l 1
EndSplineSet
EndChar

StartChar: bullet
Encoding: 8226 8226 97
Width: 721
VWidth: 0
Flags: W
PickledData: "(dp1
S'com.typemytype.robofont.layerData'
p2
(dp3
s."
LayerCount: 2
Fore
SplineSet
360 403 m 0
 161 403 47 539 47 741 c 0
 47 943 161 1079 360 1079 c 0
 559 1079 674 943 674 741 c 0
 674 539 559 403 360 403 c 0
EndSplineSet
EndChar

StartChar: c
Encoding: 99 99 98
Width: 1048
VWidth: 0
Flags: W
PickledData: "(dp1
S'com.typemytype.robofont.layerData'
p2
(dp3
s."
LayerCount: 2
Fore
SplineSet
557 -18 m 0
 221 -18 98 158 98 492 c 2
 98 954 l 2
 98 1330 195 1518 552 1518 c 0
 800 1518 978 1380 978 1135 c 2
 978 879 l 1
 622 879 l 1
 622 1116 l 2
 622 1185 609 1239 542 1239 c 0
 483 1239 454 1197 454 1114 c 2
 454 387 l 2
 454 326 479 264 540 264 c 0
 602 264 624 322 624 389 c 2
 622 614 l 1
 978 614 l 1
 978 379 l 2
 978 130 807 -18 557 -18 c 0
EndSplineSet
EndChar

StartChar: caron
Encoding: 711 711 99
Width: 970
VWidth: 0
Flags: W
PickledData: "(dp1
S'com.typemytype.robofont.layerData'
p2
(dp3
s."
LayerCount: 2
Fore
SplineSet
689 1591 m 1
 281 1591 l 1
 40 1994 l 1
 399 1994 l 1
 485 1709 l 1
 571 1994 l 1
 930 1994 l 1
 689 1591 l 1
EndSplineSet
EndChar

StartChar: cedilla
Encoding: 184 184 101
Width: 1015
VWidth: 0
Flags: W
PickledData: "(dp1
S'com.typemytype.robofont.layerData'
p2
(dp3
s."
LayerCount: 2
Fore
SplineSet
852 -330 m 0
 852 -518.601 694.03 -631 504 -631 c 0
 436 -631 370 -617.667 306 -591 c 1
 306 -368 l 1
 350 -383.333 388.667 -391 422 -391 c 0
 495.076 -391 537 -353.935 537 -279 c 0
 537 -188.756 459.208 -123.538 377 -106 c 1
 377 0 l 1
 588 0 l 1
 588 -76 l 1
 730.506 -95.0756 852 -183.122 852 -330 c 0
EndSplineSet
EndChar

StartChar: cent
Encoding: 162 162 102
Width: 986
VWidth: 0
Flags: W
PickledData: "(dp1
S'com.typemytype.robofont.layerData'
p2
(dp3
s."
LayerCount: 2
Fore
SplineSet
576 614 m 1
 941 614 l 1
 941 379 l 2
 941 155 795 16 595 -12 c 1
 595 -113 l 1
 422 -113 l 1
 422 -13 l 1
 149 18 48 190 48 492 c 2
 48 954 l 2
 48 1294 130 1485 422 1514 c 1
 422 1607 l 1
 595 1607 l 1
 595 1511 l 1
 792 1483 941 1354 941 1135 c 2
 941 879 l 1
 576 879 l 1
 576 1116 l 2
 576 1185 563 1239 496 1239 c 0
 437 1239 408 1197 408 1114 c 2
 408 387 l 2
 408 326 433 264 494 264 c 0
 556 264 578 322 578 389 c 2
 576 614 l 1
EndSplineSet
EndChar

StartChar: circumflex
Encoding: 710 710 103
Width: 970
VWidth: 0
Flags: W
PickledData: "(dp1
S'com.typemytype.robofont.layerData'
p2
(dp3
s."
LayerCount: 2
Fore
SplineSet
689 1994 m 1
 930 1591 l 1
 571 1591 l 1
 485 1876 l 1
 399 1591 l 1
 40 1591 l 1
 281 1994 l 1
 689 1994 l 1
EndSplineSet
EndChar

StartChar: colon
Encoding: 58 58 104
Width: 495
VWidth: 0
Flags: W
PickledData: "(dp1
S'com.typemytype.robofont.layerData'
p2
(dp3
s."
LayerCount: 2
Fore
SplineSet
426 535 m 1
 426 237 l 1
 68 237 l 1
 68 535 l 1
 426 535 l 1
426 1274 m 1
 426 976 l 1
 68 976 l 1
 68 1274 l 1
 426 1274 l 1
EndSplineSet
EndChar

StartChar: comma
Encoding: 44 44 105
Width: 484
VWidth: 0
Flags: W
PickledData: "(dp1
S'com.typemytype.robofont.layerData'
p2
(dp3
s."
LayerCount: 2
Fore
SplineSet
116 -235 m 1
 182 1 l 1
 55 1 l 1
 55 299 l 1
 429 299 l 1
 429 10 l 1
 327 -235 l 1
 116 -235 l 1
EndSplineSet
EndChar

StartChar: copyright
Encoding: 169 169 106
Width: 1382
VWidth: 0
Flags: W
PickledData: "(dp1
S'com.typemytype.robofont.layerData'
p2
(dp3
s."
LayerCount: 2
Fore
SplineSet
691 1390 m 0
 402 1390 193 1153 193 862 c 0
 193 571 402 334 691 334 c 0
 980 334 1189 571 1189 862 c 0
 1189 1153 980 1390 691 1390 c 0
691 205 m 0
 318 205 34 489 34 862 c 0
 34 1235 318 1519 691 1519 c 0
 1064 1519 1348 1235 1348 862 c 0
 1348 489 1064 205 691 205 c 0
645 1066 m 2
 645 657 l 2
 645 627 661 592 689 592 c 0
 720 592 735 614 735 657 c 2
 735 806 l 1
 928 806 l 1
 928 643 l 2
 928 497 847 424 685 424 c 0
 546 424 455 507 455 648 c 2
 455 1049 l 2
 455 1217 524 1305 689 1305 c 0
 823 1305 924 1239 924 1105 c 2
 924 952 l 1
 735 952 l 1
 735 1053 l 2
 735 1104 720 1130 689 1130 c 0
 652 1130 645 1104 645 1066 c 2
EndSplineSet
EndChar

StartChar: currency
Encoding: 164 164 107
Width: 1000
VWidth: 0
Flags: W
PickledData: "(dp1
S'com.typemytype.robofont.layerData'
p2
(dp3
s."
LayerCount: 2
Fore
SplineSet
499 545 m 0
 416 545 344 563 283 598 c 1
 194 509 l 1
 45 659 l 1
 136 750 l 1
 101 815 83 887 83 964 c 0
 83 1042 100 1113 135 1178 c 1
 45 1268 l 1
 194 1418 l 1
 281 1330 l 1
 346 1367 418 1385 499 1385 c 0
 579 1385 652 1367 717 1331 c 1
 804 1418 l 1
 954 1269 l 1
 864 1179 l 1
 900 1114 918 1043 918 964 c 0
 918 885 900 813 864 748 c 1
 954 658 l 1
 804 509 l 1
 715 597 l 1
 653 562 581 545 499 545 c 0
708 966 m 0
 708 1092 628 1186 499 1186 c 0
 373 1186 291 1087 291 964 c 0
 291 840 372 741 499 741 c 0
 626 741 708 842 708 966 c 0
EndSplineSet
EndChar

StartChar: d
Encoding: 100 100 108
Width: 1096
VWidth: 0
Flags: W
PickledData: "(dp1
S'com.typemytype.robofont.layerData'
p2
(dp3
s."
LayerCount: 2
Fore
SplineSet
403 -18 m 0
 126 -18 98 201 98 477 c 2
 98 1153 l 2
 98 1357 204 1518 409 1518 c 0
 504 1518 577 1485 626 1419 c 1
 626 1767 l 1
 982 1767 l 1
 982 0 l 1
 626 0 l 1
 626 159 l 1
 586 51 528 -18 403 -18 c 0
542 1239 m 0
 465 1239 454 1160 454 1083 c 2
 454 452 l 2
 454 327 483 264 540 264 c 0
 638 264 626 422 626 520 c 2
 626 1083 l 2
 626 1153 612 1239 542 1239 c 0
EndSplineSet
EndChar

StartChar: dagger
Encoding: 8224 8224 109
Width: 789
VWidth: 0
Flags: W
PickledData: "(dp1
S'com.typemytype.robofont.layerData'
p2
(dp3
s."
LayerCount: 2
Fore
SplineSet
758 996 m 1
 578 996 l 1
 578 0 l 1
 214 0 l 1
 214 996 l 1
 31 996 l 1
 31 1292 l 1
 214 1292 l 1
 214 1592 l 1
 578 1592 l 1
 578 1292 l 1
 758 1292 l 1
 758 996 l 1
EndSplineSet
EndChar

StartChar: daggerdbl
Encoding: 8225 8225 110
Width: 807
VWidth: 0
Flags: W
PickledData: "(dp1
S'com.typemytype.robofont.layerData'
p2
(dp3
s."
LayerCount: 2
Fore
SplineSet
223 1236 m 1
 223 1592 l 1
 587 1592 l 1
 587 1236 l 1
 767 1236 l 1
 767 940 l 1
 587 940 l 1
 587 646 l 1
 767 646 l 1
 767 350 l 1
 587 350 l 1
 587 0 l 1
 223 0 l 1
 223 350 l 1
 40 350 l 1
 40 646 l 1
 223 646 l 1
 223 940 l 1
 40 940 l 1
 40 1236 l 1
 223 1236 l 1
EndSplineSet
EndChar

StartChar: degree
Encoding: 176 176 111
Width: 796
VWidth: 0
Flags: W
PickledData: "(dp1
S'com.typemytype.robofont.layerData'
p2
(dp3
s."
LayerCount: 2
Fore
SplineSet
398 1426 m 0
 309 1426 256 1356 256 1269 c 0
 256 1182 309 1112 398 1112 c 0
 487 1112 540 1182 540 1269 c 0
 540 1356 487 1426 398 1426 c 0
397 931 m 0
 183 931 44 1057 44 1269 c 0
 44 1480 183 1607 397 1607 c 0
 611 1607 751 1480 751 1269 c 0
 751 1058 611 931 397 931 c 0
EndSplineSet
EndChar

StartChar: dieresis
Encoding: 168 168 112
Width: 976
VWidth: 0
Flags: W
PickledData: "(dp1
S'com.typemytype.robofont.layerData'
p2
(dp3
s."
LayerCount: 2
Fore
SplineSet
67 1591 m 1
 67 1889 l 1
 425 1889 l 1
 425 1591 l 1
 67 1591 l 1
551 1591 m 1
 551 1889 l 1
 909 1889 l 1
 909 1591 l 1
 551 1591 l 1
EndSplineSet
EndChar

StartChar: divide
Encoding: 247 247 113
Width: 684
VWidth: 0
Flags: W
PickledData: "(dp1
S'com.typemytype.robofont.layerData'
p2
(dp3
s."
LayerCount: 2
Fore
SplineSet
650 870 m 1
 650 638 l 1
 34 638 l 1
 34 870 l 1
 650 870 l 1
491 535 m 1
 491 237 l 1
 193 237 l 1
 193 535 l 1
 491 535 l 1
491 1274 m 1
 491 976 l 1
 193 976 l 1
 193 1274 l 1
 491 1274 l 1
EndSplineSet
EndChar

StartChar: dollar
Encoding: 36 36 114
Width: 946
VWidth: 0
Flags: W
PickledData: "(dp1
S'com.typemytype.robofont.layerData'
p2
(dp3
s."
LayerCount: 2
Fore
SplineSet
911 413 m 0
 911 193 760 57 557 34 c 1
 557 -113 l 1
 384 -113 l 1
 384 36 l 1
 133 65 34 208 34 488 c 2
 34 543 l 1
 382 543 l 1
 382 501 l 2
 382 398 413 347 476 347 c 0
 532 347 560 397 560 456 c 0
 560 479 539 514 498 560 c 1
 210 849 l 2
 105 954 52 1069 52 1192 c 0
 52 1392 203 1526 384 1558 c 1
 384 1679 l 1
 557 1679 l 1
 557 1561 l 1
 785 1532 906 1366 906 1105 c 1
 549 1105 l 1
 547 1190 l 1
 544 1227 505 1259 465 1259 c 0
 419 1259 381 1228 381 1182 c 0
 381 1149 414 1099 480 1034 c 2
 760 758 l 2
 842 677 911 559 911 413 c 0
EndSplineSet
EndChar

StartChar: dotaccent
Encoding: 729 729 115
Width: 491
VWidth: 0
Flags: W
PickledData: "(dp1
S'com.typemytype.robofont.layerData'
p2
(dp3
s."
LayerCount: 2
Fore
SplineSet
67 1592 m 1
 67 1890 l 1
 425 1890 l 1
 425 1592 l 1
 67 1592 l 1
EndSplineSet
EndChar

StartChar: dotlessi
Encoding: 305 305 116
Width: 482
VWidth: 0
Flags: W
PickledData: "(dp1
S'com.typemytype.robofont.layerData'
p2
(dp3
s."
LayerCount: 2
Fore
SplineSet
420 1500 m 1
 420 0 l 1
 62 0 l 1
 62 1500 l 1
 420 1500 l 1
EndSplineSet
EndChar

StartChar: e
Encoding: 101 101 117
Width: 1069
VWidth: 0
Flags: W
PickledData: "(dp1
S'com.typemytype.robofont.layerData'
p2
(dp3
s."
LayerCount: 2
Fore
SplineSet
624 579 m 1
 980 579 l 1
 980 494 l 2
 980 157 870 -18 530 -18 c 0
 209 -18 98 170 98 489 c 2
 98 1092 l 2
 98 1371 268 1518 548 1518 c 0
 836 1518 980 1376 980 1092 c 2
 980 983 l 2
 980 848 979 768 976 717 c 1
 456 717 l 1
 456 495 456 439 456 427 c 0
 456 346 462 260 542 260 c 0
 628 260 626 395 626 483 c 0
 626 542 625 574 624 579 c 1
454 1057 m 0
 454 1033 454 919 454 895 c 1
 624 895 l 1
 624 1087 l 2
 624 1195 597 1249 544 1249 c 0
 457 1249 454 1146 454 1057 c 0
EndSplineSet
EndChar

StartChar: eight
Encoding: 56 56 122
Width: 1019
VWidth: 0
Flags: W
PickledData: "(dp1
S'com.typemytype.robofont.layerData'
p2
(dp3
s."
LayerCount: 2
Fore
SplineSet
604 592 m 0
 604 686 600 815 509 815 c 0
 418 815 407 674 414 575 c 1
 414 560 l 2
 414 550 413 514 413 503 c 0
 413 387 445 329 509 329 c 0
 573 329 605 387 605 503 c 0
 605 525 604 571 604 592 c 0
49 1289 m 2
 49 1335 l 2
 49 1647 209 1782 509 1782 c 0
 817 1782 969 1644 969 1321 c 0
 969 1152 939 1034 820 984 c 1
 957 918 971 776 971 569 c 0
 971 550 971 535 970 525 c 1
 970 178 840 -19 509 -19 c 0
 178 -19 48 178 48 525 c 2
 48 642 l 2
 48 820 83 927 198 986 c 1
 90 1030 49 1135 49 1289 c 2
509 1458 m 0
 437 1458 416 1377 416 1302 c 0
 416 1190 447 1134 509 1134 c 0
 571 1134 602 1190 602 1302 c 0
 602 1377 581 1458 509 1458 c 0
EndSplineSet
EndChar

StartChar: ellipsis
Encoding: 8230 8230 123
Width: 1450
VWidth: 0
Flags: W
PickledData: "(dp1
S'com.typemytype.robofont.layerData'
p2
(dp3
s."
LayerCount: 2
Fore
SplineSet
413 299 m 1
 413 1 l 1
 55 1 l 1
 55 299 l 1
 413 299 l 1
904 299 m 1
 904 1 l 1
 546 1 l 1
 546 299 l 1
 904 299 l 1
1395 299 m 1
 1395 1 l 1
 1037 1 l 1
 1037 299 l 1
 1395 299 l 1
EndSplineSet
EndChar

StartChar: emdash
Encoding: 8212 8212 124
Width: 1153
VWidth: 0
Flags: W
PickledData: "(dp1
S'com.typemytype.robofont.layerData'
p2
(dp3
s."
LayerCount: 2
Fore
SplineSet
1092 509 m 1
 60 509 l 1
 60 741 l 1
 1092 741 l 1
 1092 509 l 1
EndSplineSet
EndChar

StartChar: endash
Encoding: 8211 8211 125
Width: 637
VWidth: 0
Flags: W
PickledData: "(dp1
S'com.typemytype.robofont.layerData'
p2
(dp3
s."
LayerCount: 2
Fore
SplineSet
576 741 m 1
 576 509 l 1
 60 509 l 1
 60 741 l 1
 576 741 l 1
EndSplineSet
EndChar

StartChar: equal
Encoding: 61 61 126
Width: 637
VWidth: 0
Flags: W
PickledData: "(dp1
S'com.typemytype.robofont.layerData'
p2
(dp3
s."
LayerCount: 2
Fore
SplineSet
575 741 m 1
 575 509 l 1
 61 509 l 1
 61 741 l 1
 575 741 l 1
575 1116 m 1
 575 892 l 1
 61 892 l 1
 61 1116 l 1
 575 1116 l 1
EndSplineSet
EndChar

StartChar: exclam
Encoding: 33 33 127
Width: 469
VWidth: 0
Flags: W
PickledData: "(dp1
S'com.typemytype.robofont.layerData'
p2
(dp3
s."
LayerCount: 2
Fore
SplineSet
343 439 m 1
 125 439 l 1
 55 1593 l 1
 413 1593 l 1
 343 439 l 1
413 299 m 1
 413 1 l 1
 55 1 l 1
 55 299 l 1
 413 299 l 1
EndSplineSet
EndChar

StartChar: exclamdown
Encoding: 161 161 128
Width: 464
VWidth: 0
Flags: W
PickledData: "(dp1
S'com.typemytype.robofont.layerData'
p2
(dp3
s."
LayerCount: 2
Fore
SplineSet
341 1155 m 1
 411 1 l 1
 53 1 l 1
 123 1155 l 1
 341 1155 l 1
411 1295 m 1
 53 1295 l 1
 53 1593 l 1
 411 1593 l 1
 411 1295 l 1
EndSplineSet
EndChar

StartChar: f
Encoding: 102 102 129
Width: 653
VWidth: 0
Flags: W
PickledData: "(dp1
S'com.typemytype.robofont.layerData'
p2
(dp3
s."
LayerCount: 2
Fore
SplineSet
496 1493 m 2
 496 1541 532 1551 567 1551 c 0
 582 1551 598 1550 610 1548 c 1
 610 1749 l 1
 564 1768 500 1788 423 1788 c 0
 262 1788 140 1697 140 1536 c 2
 140 1434 l 1
 55 1434 l 1
 55 1161 l 1
 140 1161 l 1
 140 0 l 1
 496 0 l 1
 496 1157 l 1
 610 1157 l 1
 610 1434 l 1
 496 1434 l 1
 496 1493 l 2
EndSplineSet
EndChar

StartChar: five
Encoding: 53 53 130
Width: 1018
VWidth: 0
Flags: W
PickledData: "(dp1
S'com.typemytype.robofont.layerData'
p2
(dp3
s."
LayerCount: 2
Fore
SplineSet
977 668 m 0
 977 245 917 -25 506 -25 c 0
 235 -25 46 107 46 384 c 2
 46 646 l 1
 412 646 l 1
 412 495 l 2
 412 400 419 304 506 304 c 0
 582 304 599 361 599 441 c 2
 599 787 l 2
 599 873 591 970 508 970 c 0
 441 970 408 922 408 825 c 1
 85 825 l 1
 85 1761 l 1
 924 1761 l 1
 924 1431 l 1
 419 1431 l 1
 419 1183 l 1
 453 1226 514 1264 594 1264 c 0
 914 1264 977 999 977 668 c 0
EndSplineSet
EndChar

StartChar: florin
Encoding: 402 402 131
Width: 620
VWidth: 0
Flags: W
PickledData: "(dp1
S'com.typemytype.robofont.layerData'
p2
(dp3
s."
LayerCount: 2
Fore
SplineSet
535 1362 m 0
 486 1362 480 1332 480 1281 c 2
 480 1263 l 1
 578 1263 l 1
 578 986 l 1
 487 986 l 1
 487 195 l 2
 487 34 406 -47 245 -47 c 0
 160 -47 92 -37 41 -18 c 1
 41 203 l 1
 60 200 74 198 84 198 c 0
 133 198 139 228 139 279 c 2
 139 297 l 1
 132 986 l 1
 47 986 l 1
 47 1263 l 1
 132 1263 l 1
 132 1365 l 2
 132 1526 213 1607 374 1607 c 0
 459 1607 527 1597 578 1578 c 1
 578 1357 l 1
 559 1360 545 1362 535 1362 c 0
EndSplineSet
EndChar

StartChar: four
Encoding: 52 52 132
Width: 1046
VWidth: 0
Flags: W
PickledData: "(dp1
S'com.typemytype.robofont.layerData'
p2
(dp3
s."
LayerCount: 2
Fore
SplineSet
935 1761 m 1
 935 572 l 1
 1005 572 l 1
 1005 278 l 1
 935 278 l 1
 935 -1 l 1
 566 -1 l 1
 566 278 l 1
 24 278 l 1
 24 553 l 1
 377 1761 l 1
 935 1761 l 1
566 572 m 1
 566 1459 l 1
 338 572 l 1
 566 572 l 1
EndSplineSet
EndChar

StartChar: fraction
Encoding: 8260 8260 133
Width: 829
VWidth: 0
Flags: W
PickledData: "(dp1
S'com.typemytype.robofont.layerData'
p2
(dp3
s."
LayerCount: 2
Fore
SplineSet
519 1767 m 1
 803 1767 l 1
 312 0 l 1
 29 0 l 1
 519 1767 l 1
EndSplineSet
EndChar

StartChar: g
Encoding: 103 103 134
Width: 1086
VWidth: 0
Flags: W
PickledData: "(dp1
S'com.typemytype.robofont.layerData'
p2
(dp3
s."
LayerCount: 2
Fore
SplineSet
624 1500 m 1
 980 1500 l 1
 980 254 l 2
 980 -86 838 -220 501 -220 c 0
 293 -220 188 -194 71 -96 c 1
 192 111 l 1
 279 59 367 33 454 33 c 0
 569 33 624 113 624 231 c 2
 624 314 l 1
 595 211 518 160 395 160 c 0
 180 160 102 328 102 543 c 2
 102 1106 l 2
 102 1348 160 1518 395 1518 c 0
 527 1518 599 1444 624 1331 c 1
 624 1500 l 1
624 582 m 2
 624 1116 l 2
 624 1171 591 1243 536 1243 c 0
 467 1243 458 1183 458 1116 c 2
 458 582 l 2
 458 510 466 430 540 430 c 0
 596 430 624 481 624 582 c 2
EndSplineSet
EndChar

StartChar: germandbls
Encoding: 223 223 135
Width: 1007
VWidth: 0
Flags: W
PickledData: "(dp1
S'com.typemytype.robofont.layerData'
p2
(dp3
s."
LayerCount: 2
Fore
SplineSet
474 745 m 1
 474 993 l 1
 544 993 558 1044 558 1112 c 2
 558 1270 l 2
 558 1321 533 1346 483 1346 c 0
 433 1346 408 1321 408 1270 c 2
 408 0 l 1
 58 0 l 1
 58 1229 l 2
 58 1472 200 1593 483 1593 c 0
 742 1593 909 1490 909 1229 c 2
 909 1162 l 2
 909 1022 867 922 759 887 c 1
 928 847 969 684 969 476 c 0
 969 177 882 0 582 0 c 2
 478 0 l 1
 478 281 l 1
 573 281 621 320 621 399 c 2
 621 598 l 2
 621 706 583 745 474 745 c 1
EndSplineSet
EndChar

StartChar: grave
Encoding: 96 96 136
Width: 650
VWidth: 0
Flags: W
PickledData: "(dp1
S'com.typemytype.robofont.layerData'
p2
(dp3
s."
LayerCount: 2
Fore
SplineSet
526 1553 m 1
 51 1647 l 1
 51 1994 l 1
 526 1776 l 1
 526 1553 l 1
EndSplineSet
EndChar

StartChar: greater
Encoding: 62 62 137
Width: 658
VWidth: 0
Flags: W
PickledData: "(dp1
S'com.typemytype.robofont.layerData'
p2
(dp3
s."
LayerCount: 2
Fore
SplineSet
53 1300 m 1
 623 959 l 1
 623 545 l 1
 53 200 l 1
 53 558 l 1
 395 749 l 1
 53 941 l 1
 53 1300 l 1
EndSplineSet
EndChar

StartChar: greaterequal
Encoding: 8805 8805 138
Width: 661
VWidth: 0
Flags: W
PickledData: "(dp1
S'com.typemytype.robofont.layerData'
p2
(dp3
s."
LayerCount: 2
Fore
SplineSet
52 1392 m 1
 622 1051 l 1
 622 637 l 1
 52 292 l 1
 52 650 l 1
 394 841 l 1
 52 1033 l 1
 52 1392 l 1
595 232 m 1
 595 0 l 1
 79 0 l 1
 79 232 l 1
 595 232 l 1
EndSplineSet
EndChar

StartChar: guillemotleft
Encoding: 171 171 139
Width: 1184
VWidth: 0
Flags: W
PickledData: "(dp1
S'com.typemytype.robofont.layerData'
p2
(dp3
s."
LayerCount: 2
Fore
SplineSet
1126 618 m 1
 1126 260 l 1
 616 545 l 1
 616 959 l 1
 1126 1230 l 1
 1126 871 l 1
 814 749 l 1
 1126 618 l 1
548 618 m 1
 548 260 l 1
 38 545 l 1
 38 959 l 1
 548 1230 l 1
 548 871 l 1
 236 749 l 1
 548 618 l 1
EndSplineSet
EndChar

StartChar: guillemotright
Encoding: 187 187 140
Width: 1184
VWidth: 0
Flags: W
PickledData: "(dp1
S'com.typemytype.robofont.layerData'
p2
(dp3
s."
LayerCount: 2
Fore
SplineSet
58 1230 m 1
 568 959 l 1
 568 545 l 1
 58 260 l 1
 58 618 l 1
 370 749 l 1
 58 871 l 1
 58 1230 l 1
635 1230 m 1
 1145 959 l 1
 1145 545 l 1
 635 260 l 1
 635 618 l 1
 947 749 l 1
 635 871 l 1
 635 1230 l 1
EndSplineSet
EndChar

StartChar: guilsinglleft
Encoding: 8249 8249 141
Width: 606
VWidth: 0
Flags: W
PickledData: "(dp1
S'com.typemytype.robofont.layerData'
p2
(dp3
s."
LayerCount: 2
Fore
SplineSet
548 618 m 1
 548 260 l 1
 38 545 l 1
 38 959 l 1
 548 1230 l 1
 548 871 l 1
 236 749 l 1
 548 618 l 1
EndSplineSet
EndChar

StartChar: guilsinglright
Encoding: 8250 8250 142
Width: 607
VWidth: 0
Flags: W
PickledData: "(dp1
S'com.typemytype.robofont.layerData'
p2
(dp3
s."
LayerCount: 2
Fore
SplineSet
58 1230 m 1
 568 959 l 1
 568 545 l 1
 58 260 l 1
 58 618 l 1
 370 749 l 1
 58 871 l 1
 58 1230 l 1
EndSplineSet
EndChar

StartChar: h
Encoding: 104 104 143
Width: 1106
VWidth: 0
Flags: W
PickledData: "(dp1
S'com.typemytype.robofont.layerData'
p2
(dp3
s."
LayerCount: 2
Fore
SplineSet
563 1239 m 0
 480 1239 473 1138 473 1055 c 2
 473 0 l 1
 117 0 l 1
 117 1769 l 1
 473 1769 l 1
 473 1309 l 1
 499 1423 570 1518 699 1518 c 0
 907 1518 999 1379 999 1157 c 2
 999 0 l 1
 643 0 l 1
 643 1120 l 2
 643 1179 621 1239 563 1239 c 0
EndSplineSet
EndChar

StartChar: hungarumlaut
Encoding: 733 733 144
Width: 1300
VWidth: 0
Flags: W
PickledData: "(dp1
S'com.typemytype.robofont.layerData'
p2
(dp3
s."
LayerCount: 2
Fore
SplineSet
423 1236 m 1
 257 1294 l 1
 441 1773 l 1
 671 1665 l 1
 423 1236 l 1
725 1236 m 1
 559 1294 l 1
 780 1773 l 1
 1014 1665 l 1
 725 1236 l 1
EndSplineSet
EndChar

StartChar: hyphen
Encoding: 45 45 145
Width: 637
VWidth: 0
Flags: W
PickledData: "(dp1
S'com.typemytype.robofont.layerData'
p2
(dp3
s."
LayerCount: 2
Fore
SplineSet
576 741 m 1
 576 509 l 1
 60 509 l 1
 60 741 l 1
 576 741 l 1
EndSplineSet
EndChar

StartChar: i
Encoding: 105 105 146
Width: 590
VWidth: 0
Flags: W
PickledData: "(dp1
S'com.typemytype.robofont.layerData'
p2
(dp3
s."
LayerCount: 2
Fore
SplineSet
473 1500 m 1
 473 0 l 1
 117 0 l 1
 117 1500 l 1
 473 1500 l 1
473 1800 m 1
 473 1600 l 1
 117 1600 l 1
 117 1800 l 1
 473 1800 l 1
EndSplineSet
EndChar

StartChar: infinity
Encoding: 8734 8734 152
Width: 1171
VWidth: 0
Flags: W
PickledData: "(dp1
S'com.typemytype.robofont.layerData'
p2
(dp3
s."
LayerCount: 2
Fore
SplineSet
48 744 m 0
 48 920 140 1028 310 1028 c 0
 405 1028 494 980 579 885 c 1
 663 989 754 1041 852 1041 c 0
 1028 1041 1122 927 1122 744 c 0
 1122 559 1030 439 852 439 c 0
 727 439 636 512 579 585 c 1
 523 522 422 452 310 452 c 0
 136 452 48 564 48 744 c 0
793 669 m 0
 856 669 888 693 888 740 c 0
 888 787 856 811 793 811 c 0
 742 811 692 787 641 740 c 1
 688 693 739 669 793 669 c 0
517 740 m 1
 469 787 421 810 373 810 c 0
 314 810 284 787 284 740 c 0
 284 693 314 669 373 669 c 0
 420 669 468 693 517 740 c 1
EndSplineSet
EndChar

StartChar: integral
Encoding: 8747 8747 153
Width: 606
VWidth: 0
Flags: W
PickledData: "(dp1
S'com.typemytype.robofont.layerData'
p2
(dp3
s."
LayerCount: 2
Fore
SplineSet
529 1362 m 0
 480 1362 474 1332 474 1281 c 2
 474 195 l 2
 474 35 403 -47 239 -47 c 0
 154 -47 86 -37 35 -18 c 1
 35 203 l 1
 54 200 68 198 78 198 c 0
 126 198 126 231 126 279 c 2
 126 1365 l 2
 126 1528 201 1607 368 1607 c 0
 453 1607 521 1597 572 1578 c 1
 572 1357 l 1
 553 1360 539 1362 529 1362 c 0
EndSplineSet
EndChar

StartChar: j
Encoding: 106 106 155
Width: 616
VWidth: 0
Flags: W
PickledData: "(dp1
S'com.typemytype.robofont.layerData'
p2
(dp3
s."
LayerCount: 2
Fore
SplineSet
155 1500 m 1
 511 1500 l 1
 511 166 l 2
 511 -47 435 -176 229 -176 c 0
 152 -176 72 -167 47 -150 c 1
 47 90 l 1
 56 89 65 89 72 89 c 0
 135 89 155 119 155 156 c 2
 155 1500 l 1
511 1800 m 1
 511 1600 l 1
 155 1600 l 1
 155 1800 l 1
 511 1800 l 1
EndSplineSet
EndChar

StartChar: k
Encoding: 107 107 157
Width: 1069
VWidth: 0
Flags: W
PickledData: "(dp1
S'com.typemytype.robofont.layerData'
p2
(dp3
s."
LayerCount: 2
Fore
SplineSet
473 642 m 1
 473 0 l 1
 117 0 l 1
 117 1769 l 1
 473 1769 l 1
 473 918 l 1
 664 1500 l 1
 1018 1500 l 1
 786 777 l 1
 1052 0 l 1
 696 0 l 1
 473 642 l 1
EndSplineSet
EndChar

StartChar: kgreenlandic
Encoding: 312 312 159
Width: 1040
VWidth: 0
Flags: W
PickledData: "(dp1
S'com.typemytype.robofont.layerData'
p2
(dp3
s."
LayerCount: 2
Fore
SplineSet
416 674 m 1
 416 0 l 1
 62 0 l 1
 62 1500 l 1
 416 1500 l 1
 416 950 l 1
 588 1500 l 1
 959 1500 l 1
 734 815 l 1
 1020 0 l 1
 639 0 l 1
 416 674 l 1
EndSplineSet
EndChar

StartChar: l
Encoding: 108 108 160
Width: 598
VWidth: 0
Flags: W
PickledData: "(dp1
S'com.typemytype.robofont.layerData'
p2
(dp3
s."
LayerCount: 2
Fore
SplineSet
117 1769 m 1
 481 1769 l 1
 481 0 l 1
 117 0 l 1
 117 1769 l 1
EndSplineSet
EndChar

StartChar: less
Encoding: 60 60 162
Width: 658
VWidth: 0
Flags: W
PickledData: "(dp1
S'com.typemytype.robofont.layerData'
p2
(dp3
s."
LayerCount: 2
Fore
SplineSet
605 558 m 1
 605 200 l 1
 35 545 l 1
 35 959 l 1
 605 1300 l 1
 605 941 l 1
 263 749 l 1
 605 558 l 1
EndSplineSet
EndChar

StartChar: lessequal
Encoding: 8804 8804 163
Width: 661
VWidth: 0
Flags: W
PickledData: "(dp1
S'com.typemytype.robofont.layerData'
p2
(dp3
s."
LayerCount: 2
Fore
SplineSet
609 650 m 1
 609 292 l 1
 39 637 l 1
 39 1051 l 1
 609 1392 l 1
 609 1033 l 1
 267 841 l 1
 609 650 l 1
582 232 m 1
 582 0 l 1
 66 0 l 1
 66 232 l 1
 582 232 l 1
EndSplineSet
EndChar

StartChar: logicalnot
Encoding: 172 172 164
Width: 827
VWidth: 0
Flags: W
PickledData: "(dp1
S'com.typemytype.robofont.layerData'
p2
(dp3
s."
LayerCount: 2
Fore
SplineSet
455 801 m 1
 37 801 l 1
 37 979 l 1
 766 979 l 1
 766 439 l 1
 455 439 l 1
 455 801 l 1
EndSplineSet
EndChar

StartChar: lozenge
Encoding: 9674 9674 165
Width: 921
VWidth: 0
Flags: W
PickledData: "(dp1
S'com.typemytype.robofont.layerData'
p2
(dp3
s."
LayerCount: 2
Fore
SplineSet
475 1247 m 1
 443 1247 l 1
 309 713 l 1
 443 179 l 1
 475 179 l 1
 609 713 l 1
 475 1247 l 1
708 0 m 1
 217 0 l 1
 34 713 l 1
 217 1436 l 1
 708 1436 l 1
 887 713 l 1
 708 0 l 1
EndSplineSet
EndChar

StartChar: lslash
Encoding: 322 322 166
Width: 590
VWidth: 0
Flags: W
PickledData: "(dp1
S'com.typemytype.robofont.layerData'
p2
(dp3
s."
LayerCount: 2
Fore
SplineSet
112 1767 m 1
 476 1767 l 1
 476 0 l 1
 112 0 l 1
 112 1767 l 1
553 973 m 1
 553 741 l 1
 37 509 l 1
 37 741 l 1
 553 973 l 1
EndSplineSet
EndChar

StartChar: m
Encoding: 109 109 167
Width: 1622
VWidth: 0
Flags: W
PickledData: "(dp1
S'com.typemytype.robofont.layerData'
p2
(dp3
s."
LayerCount: 2
Fore
SplineSet
571 1243 m 0
 490 1243 469 1140 469 1059 c 2
 469 0 l 1
 117 0 l 1
 117 1500 l 1
 469 1500 l 1
 469 1326 l 1
 501 1448 567 1519 717 1519 c 0
 837 1519 925 1456 960 1365 c 1
 1015 1464 1073 1519 1211 1519 c 0
 1460 1519 1515 1343 1515 1096 c 2
 1515 0 l 1
 1163 0 l 1
 1163 1102 l 2
 1163 1199 1139 1247 1090 1247 c 0
 1013 1247 993 1154 993 1077 c 2
 993 0 l 1
 641 0 l 1
 641 1102 l 2
 641 1165 634 1243 571 1243 c 0
EndSplineSet
EndChar

StartChar: minus
Encoding: 8722 8722 169
Width: 637
VWidth: 0
Flags: W
PickledData: "(dp1
S'com.typemytype.robofont.layerData'
p2
(dp3
s."
LayerCount: 2
Fore
SplineSet
576 741 m 1
 576 509 l 1
 60 509 l 1
 60 741 l 1
 576 741 l 1
EndSplineSet
EndChar

StartChar: multiply
Encoding: 215 215 170
Width: 710
VWidth: 0
Flags: W
PickledData: "(dp1
S'com.typemytype.robofont.layerData'
p2
(dp3
s."
LayerCount: 2
Fore
SplineSet
502 314 m 1
 355 461 l 1
 208 314 l 1
 44 478 l 1
 191 625 l 1
 44 772 l 1
 208 936 l 1
 355 789 l 1
 502 936 l 1
 666 772 l 1
 519 625 l 1
 666 478 l 1
 502 314 l 1
EndSplineSet
EndChar

StartChar: n
Encoding: 110 110 171
Width: 1106
VWidth: 0
Flags: W
PickledData: "(dp1
S'com.typemytype.robofont.layerData'
p2
(dp3
s."
LayerCount: 2
Fore
SplineSet
563 1239 m 0
 480 1239 473 1138 473 1055 c 2
 473 0 l 1
 117 0 l 1
 117 1500 l 1
 473 1500 l 1
 473 1309 l 1
 499 1423 570 1518 699 1518 c 0
 907 1518 999 1379 999 1157 c 2
 999 0 l 1
 643 0 l 1
 643 1120 l 2
 643 1179 621 1239 563 1239 c 0
EndSplineSet
EndChar

StartChar: nine
Encoding: 57 57 173
Width: 1033
VWidth: 0
Flags: W
PickledData: "(dp1
S'com.typemytype.robofont.layerData'
p2
(dp3
s."
LayerCount: 2
Fore
SplineSet
979 625 m 0
 979 240 882 -19 507 -19 c 0
 258 -19 45 102 45 356 c 2
 45 511 l 1
 417 511 l 1
 416 430 l 1
 416 426 l 2
 416 372 458 330 505 330 c 0
 561 330 597 379 597 444 c 2
 597 696 l 1
 556 650 483 616 402 616 c 0
 92 616 48 875 48 1199 c 0
 48 1556 171 1777 520 1777 c 0
 875 1777 983 1552 983 1187 c 1
 980 749 l 2
 979 695 979 653 979 625 c 0
520 1453 m 0
 415 1453 428 1319 428 1190 c 0
 428 1078 412 935 518 935 c 0
 578 935 608 994 608 1111 c 2
 608 1277 l 2
 608 1367 598 1453 520 1453 c 0
EndSplineSet
EndChar

StartChar: notequal
Encoding: 8800 8800 174
Width: 637
VWidth: 0
Flags: W
PickledData: "(dp1
S'com.typemytype.robofont.layerData'
p2
(dp3
s."
LayerCount: 2
Fore
SplineSet
575 741 m 1
 575 509 l 1
 61 509 l 1
 61 741 l 1
 575 741 l 1
575 1116 m 1
 575 892 l 1
 61 892 l 1
 61 1116 l 1
 575 1116 l 1
EndSplineSet
EndChar

StartChar: numbersign
Encoding: 35 35 176
Width: 1119
VWidth: 0
Flags: W
PickledData: "(dp1
S'com.typemytype.robofont.layerData'
p2
(dp3
s."
LayerCount: 2
Fore
SplineSet
182 741 m 1
 210 886 l 1
 100 886 l 1
 100 1118 l 1
 255 1118 l 1
 348 1593 l 1
 632 1593 l 1
 539 1118 l 1
 705 1118 l 1
 798 1593 l 1
 1082 1593 l 1
 989 1118 l 1
 1082 1118 l 1
 1082 886 l 1
 944 886 l 1
 916 741 l 1
 1024 741 l 1
 1024 509 l 1
 870 509 l 1
 771 0 l 1
 488 0 l 1
 587 509 l 1
 420 509 l 1
 321 0 l 1
 38 0 l 1
 137 509 l 1
 42 509 l 1
 42 741 l 1
 182 741 l 1
632 741 m 1
 660 886 l 1
 494 886 l 1
 466 741 l 1
 632 741 l 1
EndSplineSet
EndChar

StartChar: o
Encoding: 111 111 177
Width: 1076
VWidth: 0
Flags: W
PickledData: "(dp1
S'com.typemytype.robofont.layerData'
p2
(dp3
s."
LayerCount: 2
Fore
SplineSet
978 1051 m 2
 978 449 l 2
 978 143 839 -18 538 -18 c 0
 239 -18 98 138 98 449 c 2
 98 1051 l 2
 98 1333 258 1518 538 1518 c 0
 819 1518 978 1334 978 1051 c 2
538 260 m 0
 598 260 622 308 622 375 c 2
 622 1108 l 2
 622 1195 594 1239 538 1239 c 0
 482 1239 454 1195 454 1108 c 2
 454 375 l 2
 454 308 478 260 538 260 c 0
EndSplineSet
EndChar

StartChar: oe
Encoding: 339 339 181
Width: 1513
VWidth: 0
Flags: W
PickledData: "(dp1
S'com.typemytype.robofont.layerData'
p2
(dp3
s."
LayerCount: 2
Fore
SplineSet
1106 579 m 1
 1462 579 l 1
 1462 494 l 2
 1462 157 1352 -18 1012 -18 c 0
 911 -18 829 11 766 69 c 1
 696 11 606 -18 496 -18 c 0
 197 -18 48 138 48 449 c 2
 48 1051 l 2
 48 1333 216 1518 496 1518 c 0
 598 1518 686 1486 761 1422 c 1
 829 1486 919 1518 1030 1518 c 0
 1318 1518 1462 1376 1462 1092 c 2
 1462 983 l 2
 1462 848 1461 755 1458 704 c 1
 938 704 l 1
 938 494 l 2
 938 482 937 439 937 427 c 0
 937 346 944 260 1024 260 c 0
 1110 260 1108 395 1108 483 c 0
 1108 542 1107 574 1106 579 c 1
496 260 m 0
 556 260 580 308 580 375 c 2
 580 1108 l 2
 580 1195 552 1239 496 1239 c 0
 440 1239 412 1195 412 1108 c 2
 412 375 l 2
 412 308 436 260 496 260 c 0
936 1057 m 0
 936 1033 938 955 938 931 c 1
 1106 931 l 1
 1106 1087 l 2
 1106 1195 1079 1249 1026 1249 c 0
 939 1249 936 1146 936 1057 c 0
EndSplineSet
EndChar

StartChar: ogonek
Encoding: 731 731 182
Width: 1015
VWidth: 0
Flags: W
PickledData: "(dp1
S'com.typemytype.robofont.layerData'
p2
(dp3
s."
LayerCount: 2
Fore
SplineSet
621 -279 m 0
 621 -353.943 662.915 -391 736 -391 c 0
 769.333 -391 808 -383.333 852 -368 c 1
 852 -591 l 1
 788 -617.667 722 -631 654 -631 c 0
 463.943 -631 306 -518.613 306 -330 c 0
 306 -209.333 394 -99.3333 570 0 c 1
 781 0 l 1
 706.889 -89.9922 621 -168.689 621 -279 c 0
EndSplineSet
EndChar

StartChar: one
Encoding: 49 49 184
Width: 677
VWidth: 0
Flags: W
PickledData: "(dp1
S'com.typemytype.robofont.layerData'
p2
(dp3
s."
LayerCount: 2
Fore
SplineSet
24 1260 m 1
 24 1541 l 1
 130 1556 276 1629 332 1761 c 1
 615 1761 l 1
 615 0 l 1
 242 0 l 1
 242 1356 l 1
 194 1299 98 1260 24 1260 c 1
EndSplineSet
EndChar

StartChar: onehalf
Encoding: 189 189 185
Width: 1560
VWidth: 0
Flags: W
PickledData: "(dp1
S'com.typemytype.robofont.layerData'
p2
(dp3
s."
LayerCount: 2
Fore
SplineSet
22 1487 m 1
 80 1487 196 1545 196 1607 c 1
 355 1607 l 1
 355 656 l 1
 145 656 l 1
 145 1364 l 1
 106 1344 65 1334 22 1334 c 1
 23 1377 24 1413 24 1444 c 0
 24 1469 23 1483 22 1487 c 1
861 1767 m 1
 1145 1767 l 1
 654 0 l 1
 371 0 l 1
 861 1767 l 1
1526 712 m 0
 1526 453 1336 355 1246 182 c 1
 1519 182 l 1
 1519 -1 l 1
 1000 -1 l 1
 1000 46 l 2
 1000 258 1128 383 1263 546 c 0
 1297 586 1314 640 1314 709 c 0
 1314 764 1296 792 1261 792 c 0
 1227 792 1210 763 1210 705 c 2
 1210 586 l 1
 1000 586 l 1
 998 646 l 1
 998 864 1052 974 1263 974 c 0
 1428 974 1526 879 1526 712 c 0
EndSplineSet
EndChar

StartChar: onequarter
Encoding: 188 188 186
Width: 1395
VWidth: 0
Flags: W
PickledData: "(dp1
S'com.typemytype.robofont.layerData'
p2
(dp3
s."
LayerCount: 2
Fore
SplineSet
22 1487 m 1
 80 1487 196 1545 196 1607 c 1
 355 1607 l 1
 355 656 l 1
 145 656 l 1
 145 1364 l 1
 106 1344 65 1334 22 1334 c 1
 23 1377 24 1413 24 1444 c 0
 24 1469 23 1483 22 1487 c 1
803 1767 m 1
 1087 1767 l 1
 596 0 l 1
 313 0 l 1
 803 1767 l 1
1320 941 m 1
 1320 322 l 1
 1359 322 l 1
 1359 151 l 1
 1320 151 l 1
 1320 -1 l 1
 1113 -1 l 1
 1113 151 l 1
 810 151 l 1
 810 300 l 1
 997 941 l 1
 1320 941 l 1
1113 322 m 1
 1113 727 l 1
 1003 322 l 1
 1113 322 l 1
EndSplineSet
EndChar

StartChar: ordfeminine
Encoding: 170 170 187
Width: 803
VWidth: 0
Flags: W
PickledData: "(dp1
S'com.typemytype.robofont.layerData'
p2
(dp3
s."
LayerCount: 2
Fore
SplineSet
286 389 m 0
 88 389 44 541 44 744 c 0
 44 1068 193 1090 459 1181 c 1
 459 1183 l 2
 459 1259 474 1386 398 1386 c 0
 359 1386 339 1364 339 1321 c 2
 339 1241 l 1
 63 1241 l 1
 62 1250 62 1263 62 1280 c 0
 62 1516 169 1607 412 1607 c 2
 419 1607 l 2
 606 1607 745 1501 745 1310 c 2
 745 403 l 1
 463 403 l 1
 463 527 l 1
 446 461 368 389 286 389 c 0
458 704 m 2
 458 1017 l 1
 379 986 334 948 334 855 c 2
 334 716 l 2
 334 646 355 611 398 611 c 0
 444 611 458 659 458 704 c 2
EndSplineSet
EndChar

StartChar: ordmasculine
Encoding: 186 186 188
Width: 813
VWidth: 0
Flags: W
PickledData: "(dp1
S'com.typemytype.robofont.layerData'
p2
(dp3
s."
LayerCount: 2
Fore
SplineSet
762 1235 m 2
 762 757 l 2
 762 515 645 387 406 387 c 0
 169 387 50 510 50 757 c 2
 50 1235 l 2
 50 1456 182 1605 403 1605 c 2
 406 1605 l 2
 629 1605 762 1460 762 1235 c 2
339 1280 m 2
 339 699 l 2
 339 586 472 569 472 699 c 2
 472 1280 l 2
 472 1349 450 1384 406 1384 c 0
 361 1384 339 1349 339 1280 c 2
EndSplineSet
EndChar

StartChar: oslash
Encoding: 248 248 189
Width: 989
VWidth: 0
Flags: W
PickledData: "(dp1
S'com.typemytype.robofont.layerData'
p2
(dp3
s."
LayerCount: 2
Fore
SplineSet
942 1051 m 2
 942 449 l 2
 942 143 794 -18 493 -18 c 0
 433 -18 377 -11 326 2 c 1
 277 -173 l 1
 177 -145 l 1
 229 42 l 1
 106 115 45 250 45 449 c 2
 45 1051 l 2
 45 1333 213 1518 493 1518 c 0
 542 1518 590 1512 637 1499 c 1
 686 1672 l 1
 787 1644 l 1
 735 1459 l 1
 863 1386 942 1247 942 1051 c 2
493 260 m 0
 553 260 577 308 577 375 c 2
 577 895 l 1
 416 321 l 1
 428 280 454 260 493 260 c 0
493 1239 m 0
 437 1239 409 1195 409 1108 c 2
 409 683 l 1
 555 1206 l 1
 541 1228 520 1239 493 1239 c 0
EndSplineSet
EndChar

StartChar: p
Encoding: 112 112 191
Width: 1096
VWidth: 0
Flags: W
PickledData: "(dp1
S'com.typemytype.robofont.layerData'
p2
(dp3
S'b'
(dp4
S'name'
p5
S'p'
sS'lib'
p6
(dp7
sS'unicodes'
p8
(tsS'width'
p9
I1096
sS'contours'
p10
((dp11
S'points'
p12
((dp13
S'segmentType'
p14
S'curve'
p15
sS'x'
F563
sS'smooth'
p16
I01
sS'y'
F1239
s(dp17
S'y'
F1239
sS'x'
F480
sg16
I00
s(dp18
S'y'
F1138
sS'x'
F473
sg16
I00
s(dp19
g14
S'curve'
p20
sS'x'
F473
sg16
I01
sS'y'
F1055
s(dp21
g14
S'line'
p22
sS'x'
F473
sg16
I00
sS'y'
F0
s(dp23
g14
S'line'
p24
sS'x'
F117
sg16
I00
sS'y'
F0
s(dp25
g14
S'line'
p26
sS'x'
F117
sg16
I00
sS'y'
F1500
s(dp27
g14
S'line'
p28
sS'x'
F473
sg16
I00
sS'y'
F1500
s(dp29
g14
S'line'
p30
sS'x'
F473
sg16
I00
sS'y'
F1309
s(dp31
S'y'
F1423
sS'x'
F499
sg16
I00
s(dp32
S'y'
F1518
sS'x'
F570
sg16
I00
s(dp33
g14
S'curve'
p34
sS'x'
F699
sg16
I01
sS'y'
F1518
s(dp35
S'y'
F1518
sS'x'
F907
sg16
I00
s(dp36
S'y'
F1379
sS'x'
F999
sg16
I00
s(dp37
g14
S'curve'
p38
sS'x'
F999
sg16
I01
sS'y'
F1157
s(dp39
g14
S'line'
p40
sS'x'
F999
sg16
I00
sS'y'
F0
s(dp41
g14
S'line'
p42
sS'x'
F643
sg16
I00
sS'y'
F0
s(dp43
g14
S'line'
p44
sS'x'
F643
sg16
I01
sS'y'
F1120
s(dp45
S'y'
F1179
sS'x'
F643
sg16
I00
s(dp46
S'y'
F1239
sS'x'
F621
sg16
I00
stp47
stp48
sS'components'
p49
(tsS'anchors'
p50
(tsss."
LayerCount: 2
Fore
SplineSet
998 1075 m 2
 998 521 l 2
 998 225 976 -18 680 -18 c 0
 590 -18 520 27 473 78 c 1
 473 -300 l 1
 117 -300 l 1
 117 1500 l 1
 473 1500 l 1
 473 1349 l 1
 511 1449 608 1518 697 1518 c 0
 945 1518 998 1323 998 1075 c 2
642 438 m 2
 642 1075 l 2
 642 1152 636 1235 559 1235 c 0
 503 1235 473 1183 473 1079 c 2
 473 422 l 2
 473 336 486 262 561 262 c 0
 634 262 642 346 642 438 c 2
EndSplineSet
EndChar

StartChar: paragraph
Encoding: 182 182 192
Width: 1019
VWidth: 0
Flags: W
PickledData: "(dp1
S'com.typemytype.robofont.layerData'
p2
(dp3
s."
LayerCount: 2
Fore
SplineSet
31 1210 m 0
 31 1516 274 1593 582 1593 c 2
 957 1593 l 1
 957 0 l 1
 718 0 l 1
 718 1287 l 1
 624 1287 l 1
 624 0 l 1
 378 0 l 1
 378 797 l 1
 139 823 31 949 31 1210 c 0
EndSplineSet
EndChar

StartChar: parenleft
Encoding: 40 40 193
Width: 596
VWidth: 0
Flags: W
PickledData: "(dp1
S'com.typemytype.robofont.layerData'
p2
(dp3
s."
LayerCount: 2
Fore
SplineSet
421 1297 m 2
 421 450 l 2
 421 350 481 289 560 268 c 1
 560 -17 l 1
 244 -4 49 227 49 562 c 2
 49 1183 l 2
 49 1546 215 1751 560 1761 c 1
 560 1494 l 1
 459 1476 421 1415 421 1297 c 2
EndSplineSet
EndChar

StartChar: parenright
Encoding: 41 41 194
Width: 596
VWidth: 0
Flags: W
PickledData: "(dp1
S'com.typemytype.robofont.layerData'
p2
(dp3
s."
LayerCount: 2
Fore
SplineSet
36 1494 m 1
 36 1761 l 1
 381 1751 547 1546 547 1183 c 2
 547 562 l 2
 547 225 352 -4 36 -17 c 1
 36 268 l 1
 115 289 175 350 175 450 c 2
 175 1297 l 2
 175 1415 137 1476 36 1494 c 1
EndSplineSet
EndChar

StartChar: partialdiff
Encoding: 8706 8706 195
Width: 1072
VWidth: 0
Flags: W
PickledData: "(dp1
S'com.typemytype.robofont.layerData'
p2
(dp3
s."
LayerCount: 2
Fore
SplineSet
507 1415 m 0
 432 1415 334 1396 283 1376 c 1
 229 1607 l 1
 383 1656 513 1681 619 1681 c 0
 928 1681 1030 1479 1030 1159 c 0
 1030 1074 977 354 890 196 c 0
 811 54 669 -21 446 -21 c 0
 158 -21 37 127 37 413 c 0
 37 735 123 1086 445 1086 c 0
 508 1086 577 1073 654 1047 c 1
 661 1093 665 1132 665 1164 c 0
 665 1306 626 1415 507 1415 c 0
417 391 m 0
 417 332 432 293 490 293 c 0
 556 293 585 349 591 419 c 2
 622 759 l 1
 589 782 560 794 534 794 c 0
 481 794 450 744 440 645 c 2
 423 475 l 2
 419 439 417 411 417 391 c 0
EndSplineSet
EndChar

StartChar: percent
Encoding: 37 37 196
Width: 2164
VWidth: 0
Flags: W
PickledData: "(dp1
S'com.typemytype.robofont.layerData'
p2
(dp3
s."
LayerCount: 2
Fore
SplineSet
2122 765 m 2
 2122 402 l 2
 2122 147 1979 -18 1730 -18 c 0
 1482 -18 1339 147 1339 402 c 2
 1339 765 l 2
 1339 1034 1467 1183 1730 1183 c 0
 1993 1183 2122 1034 2122 765 c 2
1730 244 m 0
 1782 244 1823 287 1823 343 c 2
 1823 829 l 2
 1823 907 1808 956 1730 956 c 0
 1652 956 1637 906 1637 829 c 2
 1637 343 l 2
 1637 287 1678 244 1730 244 c 0
1200 1767 m 1
 1524 1767 l 1
 983 0 l 1
 660 0 l 1
 1200 1767 l 1
825 1311 m 2
 825 948 l 2
 825 693 682 528 433 528 c 0
 185 528 42 693 42 948 c 2
 42 1311 l 2
 42 1580 170 1729 433 1729 c 0
 696 1729 825 1580 825 1311 c 2
433 790 m 0
 485 790 526 833 526 889 c 2
 526 1375 l 2
 526 1453 511 1502 433 1502 c 0
 355 1502 340 1452 340 1375 c 2
 340 889 l 2
 340 833 381 790 433 790 c 0
EndSplineSet
EndChar

StartChar: period
Encoding: 46 46 197
Width: 468
VWidth: 0
Flags: W
PickledData: "(dp1
S'com.typemytype.robofont.layerData'
p2
(dp3
s."
LayerCount: 2
Fore
SplineSet
413 299 m 1
 413 1 l 1
 55 1 l 1
 55 299 l 1
 413 299 l 1
EndSplineSet
EndChar

StartChar: periodcentered
Encoding: 183 183 198
Width: 480
VWidth: 0
Flags: W
PickledData: "(dp1
S'com.typemytype.robofont.layerData'
p2
(dp3
s."
LayerCount: 2
Fore
SplineSet
419 1021 m 1
 419 723 l 1
 61 723 l 1
 61 1021 l 1
 419 1021 l 1
EndSplineSet
EndChar

StartChar: perthousand
Encoding: 8240 8240 199
Width: 3031
VWidth: 0
Flags: W
PickledData: "(dp1
S'com.typemytype.robofont.layerData'
p2
(dp3
s."
LayerCount: 2
Fore
SplineSet
2989 765 m 2
 2989 402 l 2
 2989 147 2846 -18 2597 -18 c 0
 2349 -18 2206 147 2206 402 c 2
 2206 765 l 2
 2206 1034 2334 1183 2597 1183 c 0
 2860 1183 2989 1034 2989 765 c 2
2597 244 m 0
 2649 244 2690 287 2690 343 c 2
 2690 829 l 2
 2690 907 2675 956 2597 956 c 0
 2519 956 2504 906 2504 829 c 2
 2504 343 l 2
 2504 287 2545 244 2597 244 c 0
1200 1767 m 1
 1524 1767 l 1
 983 0 l 1
 660 0 l 1
 1200 1767 l 1
825 1311 m 2
 825 948 l 2
 825 693 682 528 433 528 c 0
 185 528 42 693 42 948 c 2
 42 1311 l 2
 42 1580 170 1729 433 1729 c 0
 696 1729 825 1580 825 1311 c 2
433 790 m 0
 485 790 526 833 526 889 c 2
 526 1375 l 2
 526 1453 511 1502 433 1502 c 0
 355 1502 340 1452 340 1375 c 2
 340 889 l 2
 340 833 381 790 433 790 c 0
2122 765 m 2
 2122 402 l 2
 2122 147 1979 -18 1730 -18 c 0
 1482 -18 1339 147 1339 402 c 2
 1339 765 l 2
 1339 1034 1467 1183 1730 1183 c 0
 1993 1183 2122 1034 2122 765 c 2
1730 244 m 0
 1782 244 1823 287 1823 343 c 2
 1823 829 l 2
 1823 907 1808 956 1730 956 c 0
 1652 956 1637 906 1637 829 c 2
 1637 343 l 2
 1637 287 1678 244 1730 244 c 0
EndSplineSet
EndChar

StartChar: pi
Encoding: 960 960 200
Width: 482
VWidth: 0
Flags: W
PickledData: "(dp1
S'com.typemytype.robofont.layerData'
p2
(dp3
s."
LayerCount: 2
Fore
SplineSet
420 1500 m 1
 420 0 l 1
 62 0 l 1
 62 1500 l 1
 420 1500 l 1
EndSplineSet
EndChar

StartChar: plus
Encoding: 43 43 201
Width: 728
VWidth: 0
Flags: W
PickledData: "(dp1
S'com.typemytype.robofont.layerData'
p2
(dp3
s."
LayerCount: 2
Fore
SplineSet
248 301 m 1
 248 509 l 1
 40 509 l 1
 40 741 l 1
 248 741 l 1
 248 949 l 1
 480 949 l 1
 480 741 l 1
 688 741 l 1
 688 509 l 1
 480 509 l 1
 480 301 l 1
 248 301 l 1
EndSplineSet
EndChar

StartChar: plusminus
Encoding: 177 177 202
Width: 734
VWidth: 0
Flags: W
PickledData: "(dp1
S'com.typemytype.robofont.layerData'
p2
(dp3
s."
LayerCount: 2
Fore
SplineSet
254 414 m 1
 254 622 l 1
 46 622 l 1
 46 854 l 1
 254 854 l 1
 254 1062 l 1
 486 1062 l 1
 486 854 l 1
 694 854 l 1
 694 622 l 1
 486 622 l 1
 486 414 l 1
 254 414 l 1
603 231 m 1
 603 -1 l 1
 87 -1 l 1
 87 231 l 1
 603 231 l 1
EndSplineSet
EndChar

StartChar: product
Encoding: 8719 8719 203
Width: 990
VWidth: 0
Flags: W
PickledData: "(dp1
S'com.typemytype.robofont.layerData'
p2
(dp3
s."
LayerCount: 2
Fore
SplineSet
62 0 m 1
 62 1593 l 1
 928 1593 l 1
 928 0 l 1
 578 0 l 1
 578 1292 l 1
 412 1292 l 1
 412 0 l 1
 62 0 l 1
EndSplineSet
EndChar

StartChar: q
Encoding: 113 113 204
Width: 1096
VWidth: 0
Flags: W
PickledData: "(dp1
S'com.typemytype.robofont.guides'
p2
(tsS'com.typemytype.robofont.layerData'
p3
(dp4
S'b'
(dp5
S'name'
p6
S'q'
sS'lib'
p7
(dp8
sS'unicodes'
p9
(tsS'width'
p10
I1096
sS'contours'
p11
((dp12
S'points'
p13
((dp14
S'segmentType'
p15
S'curve'
p16
sS'x'
I623
sS'smooth'
p17
I01
sS'y'
I438
s(dp18
g15
S'line'
p19
sS'x'
I623
sg17
I01
sS'y'
I1075
s(dp20
S'y'
I1152
sS'x'
I623
sg17
I00
s(dp21
S'y'
I1235
sS'x'
I617
sg17
I00
s(dp22
g15
S'curve'
p23
sS'x'
I540
sg17
I01
sS'y'
I1235
s(dp24
S'y'
I1235
sS'x'
I484
sg17
I00
s(dp25
S'y'
I1183
sS'x'
I454
sg17
I00
s(dp26
g15
S'curve'
p27
sS'x'
I454
sg17
I01
sS'y'
I1079
s(dp28
g15
S'line'
p29
sS'x'
I454
sg17
I01
sS'y'
I422
s(dp30
S'y'
I336
sS'x'
I454
sg17
I00
s(dp31
S'y'
I262
sS'x'
I467
sg17
I00
s(dp32
g15
S'curve'
p33
sS'x'
I542
sg17
I01
sS'y'
I262
s(dp34
S'y'
I262
sS'x'
I615
sg17
I00
s(dp35
S'y'
I346
sS'x'
I623
sg17
I00
stp36
s(dp37
g13
((dp38
g15
S'curve'
p39
sS'x'
I979
sg17
I01
sS'y'
I1075
s(dp40
g15
S'line'
p41
sS'x'
I979
sg17
I01
sS'y'
I521
s(dp42
S'y'
I225
sS'x'
I979
sg17
I00
s(dp43
S'y'
I-18
sS'x'
I957
sg17
I00
s(dp44
g15
S'curve'
p45
sS'x'
I661
sg17
I01
sS'y'
I-18
s(dp46
S'y'
I-18
sS'x'
I571
sg17
I00
s(dp47
S'y'
I27
sS'x'
I501
sg17
I00
s(dp48
g15
S'curve'
p49
sS'x'
I454
sg17
I00
sS'y'
I78
s(dp50
g15
S'line'
p51
sS'x'
I454
sg17
I00
sS'y'
I-300
s(dp52
g15
S'line'
p53
sS'x'
I98
sg17
I00
sS'y'
I-300
s(dp54
g15
S'line'
p55
sS'x'
I98
sg17
I00
sS'y'
I1500
s(dp56
g15
S'line'
p57
sS'x'
I454
sg17
I00
sS'y'
I1500
s(dp58
g15
S'line'
p59
sS'x'
I454
sg17
I00
sS'y'
I1349
s(dp60
S'y'
I1449
sS'x'
I492
sg17
I00
s(dp61
S'y'
I1518
sS'x'
I589
sg17
I00
s(dp62
g15
S'curve'
p63
sS'x'
I678
sg17
I01
sS'y'
I1518
s(dp64
S'y'
I1518
sS'x'
I926
sg17
I00
s(dp65
S'y'
I1323
sS'x'
I979
sg17
I00
stp66
stp67
sS'components'
p68
(tsS'anchors'
p69
(tsss."
LayerCount: 2
Fore
SplineSet
98 482 m 2
 98 1075 l 2
 98 1322 183 1518 408 1518 c 0
 498 1518 585 1474 623 1389 c 1
 623 1500 l 1
 979 1500 l 1
 979 -300 l 1
 623 -300 l 1
 623 100 l 1
 596 35 510 -18 418 -18 c 0
 153 -18 98 191 98 482 c 2
534 262 m 0
 610 262 623 335 623 422 c 2
 623 1079 l 2
 623 1183 592 1235 536 1235 c 0
 457 1235 455 1152 455 1075 c 2
 455 438 l 2
 455 346 459 262 534 262 c 0
EndSplineSet
EndChar

StartChar: question
Encoding: 63 63 205
Width: 1008
VWidth: 0
Flags: W
PickledData: "(dp1
S'com.typemytype.robofont.layerData'
p2
(dp3
s."
LayerCount: 2
Fore
SplineSet
408 1039 m 1
 42 1039 l 1
 42 1293 l 2
 42 1562 231 1690 502 1690 c 0
 857 1690 972 1493 972 1140 c 0
 972 794 804 579 454 579 c 1
 454 409 l 1
 121 409 l 1
 121 825 l 1
 454 825 595 866 595 1208 c 0
 595 1295 582 1371 502 1371 c 0
 415 1371 408 1277 408 1185 c 2
 408 1039 l 1
468 299 m 1
 468 1 l 1
 110 1 l 1
 110 299 l 1
 468 299 l 1
EndSplineSet
EndChar

StartChar: questiondown
Encoding: 191 191 206
Width: 1009
VWidth: 0
Flags: W
PickledData: "(dp1
S'com.typemytype.robofont.layerData'
p2
(dp3
s."
LayerCount: 2
Fore
SplineSet
601 634 m 1
 967 634 l 1
 967 380 l 2
 967 111 778 -17 507 -17 c 0
 152 -17 37 180 37 533 c 0
 37 879 205 1094 555 1094 c 1
 555 1264 l 1
 888 1264 l 1
 888 848 l 1
 555 848 414 807 414 465 c 0
 414 378 427 302 507 302 c 0
 594 302 601 396 601 488 c 2
 601 634 l 1
541 1374 m 1
 541 1672 l 1
 899 1672 l 1
 899 1374 l 1
 541 1374 l 1
EndSplineSet
EndChar

StartChar: quotedbl
Encoding: 34 34 207
Width: 878
VWidth: 0
Flags: W
PickledData: "(dp1
S'com.typemytype.robofont.layerData'
p2
(dp3
s."
LayerCount: 2
Fore
SplineSet
41 1593 m 1
 393 1593 l 1
 317 957 l 1
 141 957 l 1
 41 1593 l 1
481 1593 m 1
 833 1593 l 1
 757 957 l 1
 581 957 l 1
 481 1593 l 1
EndSplineSet
EndChar

StartChar: quotedblbase
Encoding: 8222 8222 208
Width: 957
VWidth: 0
Flags: W
PickledData: "(dp1
S'com.typemytype.robofont.layerData'
p2
(dp3
s."
LayerCount: 2
Fore
SplineSet
589 -236 m 1
 655 0 l 1
 528 0 l 1
 528 298 l 1
 902 298 l 1
 902 9 l 1
 800 -236 l 1
 589 -236 l 1
116 -236 m 1
 182 0 l 1
 55 0 l 1
 55 298 l 1
 429 298 l 1
 429 9 l 1
 327 -236 l 1
 116 -236 l 1
EndSplineSet
EndChar

StartChar: quotedblleft
Encoding: 8220 8220 209
Width: 950
VWidth: 0
Flags: W
PickledData: "(dp1
S'com.typemytype.robofont.layerData'
p2
(dp3
s."
LayerCount: 2
Fore
SplineSet
836 1592 m 1
 770 1356 l 1
 897 1356 l 1
 897 1058 l 1
 523 1058 l 1
 523 1347 l 1
 625 1592 l 1
 836 1592 l 1
367 1592 m 1
 301 1356 l 1
 428 1356 l 1
 428 1058 l 1
 54 1058 l 1
 54 1347 l 1
 156 1592 l 1
 367 1592 l 1
EndSplineSet
EndChar

StartChar: quotedblright
Encoding: 8221 8221 210
Width: 948
VWidth: 0
Flags: W
PickledData: "(dp1
S'com.typemytype.robofont.layerData'
p2
(dp3
s."
LayerCount: 2
Fore
SplineSet
584 1058 m 1
 650 1294 l 1
 523 1294 l 1
 523 1592 l 1
 897 1592 l 1
 897 1303 l 1
 795 1058 l 1
 584 1058 l 1
111 1058 m 1
 177 1294 l 1
 50 1294 l 1
 50 1592 l 1
 424 1592 l 1
 424 1303 l 1
 322 1058 l 1
 111 1058 l 1
EndSplineSet
EndChar

StartChar: quoteleft
Encoding: 8216 8216 211
Width: 481
VWidth: 0
Flags: W
PickledData: "(dp1
S'com.typemytype.robofont.layerData'
p2
(dp3
s."
LayerCount: 2
Fore
SplineSet
367 1592 m 1
 301 1356 l 1
 428 1356 l 1
 428 1058 l 1
 54 1058 l 1
 54 1347 l 1
 156 1592 l 1
 367 1592 l 1
EndSplineSet
EndChar

StartChar: quoteright
Encoding: 8217 8217 212
Width: 475
VWidth: 0
Flags: W
PickledData: "(dp1
S'com.typemytype.robofont.layerData'
p2
(dp3
s."
LayerCount: 2
Fore
SplineSet
111 1058 m 1
 177 1294 l 1
 50 1294 l 1
 50 1592 l 1
 424 1592 l 1
 424 1303 l 1
 322 1058 l 1
 111 1058 l 1
EndSplineSet
EndChar

StartChar: quotesinglbase
Encoding: 8218 8218 213
Width: 484
VWidth: 0
Flags: W
PickledData: "(dp1
S'com.typemytype.robofont.layerData'
p2
(dp3
s."
LayerCount: 2
Fore
SplineSet
116 -236 m 1
 182 0 l 1
 55 0 l 1
 55 298 l 1
 429 298 l 1
 429 9 l 1
 327 -236 l 1
 116 -236 l 1
EndSplineSet
EndChar

StartChar: quotesingle
Encoding: 39 39 214
Width: 438
VWidth: 0
Flags: W
PickledData: "(dp1
S'com.typemytype.robofont.layerData'
p2
(dp3
s."
LayerCount: 2
Fore
SplineSet
41 1593 m 1
 393 1593 l 1
 317 957 l 1
 141 957 l 1
 41 1593 l 1
EndSplineSet
EndChar

StartChar: r
Encoding: 114 114 215
Width: 764
VWidth: 0
Flags: W
PickledData: "(dp1
S'com.typemytype.robofont.layerData'
p2
(dp3
s."
LayerCount: 2
Fore
SplineSet
475 1147 m 2
 475 0 l 1
 117 0 l 1
 117 1500 l 1
 475 1500 l 1
 475 1333 l 1
 509 1449 597 1518 730 1518 c 0
 735 1518 733 1215 733 1219 c 1
 645 1219 475 1187 475 1147 c 2
EndSplineSet
EndChar

StartChar: radical
Encoding: 8730 8730 216
Width: 1417
VWidth: 0
Flags: W
PickledData: "(dp1
S'com.typemytype.robofont.layerData'
p2
(dp3
s."
LayerCount: 2
Fore
SplineSet
412 338 m 1
 549 1500 l 1
 551 1501 l 1
 1382 1501 l 1
 1382 1269 l 1
 858 1269 l 1
 652 0 l 1
 248 0 l 1
 29 741 l 1
 298 741 l 1
 412 338 l 1
EndSplineSet
EndChar

StartChar: registered
Encoding: 174 174 219
Width: 1382
VWidth: 0
Flags: W
PickledData: "(dp1
S'com.typemytype.robofont.layerData'
p2
(dp3
s."
LayerCount: 2
Fore
SplineSet
691 205 m 0
 318 205 34 489 34 862 c 0
 34 1235 318 1519 691 1519 c 0
 1064 1519 1348 1235 1348 862 c 0
 1348 489 1064 205 691 205 c 0
691 1390 m 0
 402 1390 193 1153 193 862 c 0
 193 571 402 334 691 334 c 0
 980 334 1189 571 1189 862 c 0
 1189 1153 980 1390 691 1390 c 0
929 1043 m 0
 929 951 908 896 836 873 c 1
 889 863 915 822 915 751 c 2
 915 430 l 1
 731 430 l 1
 731 762 l 2
 731 812 709 818 659 818 c 1
 659 430 l 1
 469 430 l 1
 469 1282 l 1
 758 1282 l 2
 903 1282 929 1187 929 1043 c 0
660 1124 m 1
 660 965 l 1
 708 965 l 2
 733 965 745 991 745 1043 c 0
 745 1114 730 1124 660 1124 c 1
EndSplineSet
EndChar

StartChar: ring
Encoding: 730 730 220
Width: 804
VWidth: 0
Flags: W
PickledData: "(dp1
S'com.typemytype.robofont.layerData'
p2
(dp3
s."
LayerCount: 2
Fore
SplineSet
403 607 m 0
 313.858 607 261 537.146 261 450 c 0
 261 363.433 314.041 293 403 293 c 0
 491.97 293 545 363.42 545 450 c 0
 545 536.567 491.959 607 403 607 c 0
402 112 m 0
 188.096 112 49 238.073 49 450 c 0
 49 661.401 188.246 788 402 788 c 0
 615.74 788 756 661.408 756 450 c 0
 756 238.605 615.72 112 402 112 c 0
EndSplineSet
EndChar

StartChar: s
Encoding: 115 115 221
Width: 1007
VWidth: 0
Flags: W
PickledData: "(dp1
S'com.typemytype.robofont.layerData'
p2
(dp3
s."
LayerCount: 2
Fore
SplineSet
517 1518 m 0
 804 1518 953 1372 953 1081 c 2
 953 1053 l 1
 585 1053 l 1
 583 1110 l 1
 583 1170 567 1239 507 1239 c 0
 457 1239 431 1209 431 1159 c 0
 431 1106 452 1063 495 1032 c 2
 716 870 l 1
 853 768 962 646 962 418 c 0
 962 135 791 -18 511 -18 c 0
 215 -18 67 133 67 434 c 1
 69 553 l 1
 427 553 l 1
 429 377 l 2
 429 309 452 268 517 268 c 0
 565 268 589 307 589 385 c 0
 589 515 526 566 448 625 c 2
 257 772 l 2
 137 865 73 951 73 1157 c 0
 73 1394 280 1518 517 1518 c 0
EndSplineSet
EndChar

StartChar: section
Encoding: 167 167 224
Width: 920
VWidth: 0
Flags: W
PickledData: "(dp1
S'com.typemytype.robofont.layerData'
p2
(dp3
s."
LayerCount: 2
Fore
SplineSet
468 242 m 0
 519 242 554 274 554 324 c 0
 554 401 349 460 296 488 c 0
 182 546 60 646 60 795 c 0
 60 883 106 962 198 1031 c 1
 106 1098 60 1180 60 1275 c 0
 60 1481 247 1607 466 1607 c 0
 732 1607 875 1488 875 1221 c 1
 570 1221 l 1
 567 1304 536 1346 477 1346 c 0
 423 1346 381 1316 381 1264 c 0
 381 1189 585 1129 637 1101 c 0
 751 1042 874 941 874 792 c 0
 874 704 828 626 736 557 c 1
 829 488 875 407 875 313 c 0
 875 107 688 -19 469 -19 c 0
 195 -19 40 95 40 367 c 1
 375 367 l 1
 378 284 409 242 468 242 c 0
558 681 m 1
 585 717 599 750 599 780 c 0
 599 826 532 872 397 917 c 1
 364 878 347 843 347 813 c 0
 347 741 476 707 558 681 c 1
EndSplineSet
EndChar

StartChar: semicolon
Encoding: 59 59 225
Width: 502
VWidth: 0
Flags: W
PickledData: "(dp1
S'com.typemytype.robofont.layerData'
p2
(dp3
s."
LayerCount: 2
Fore
SplineSet
127 0 m 1
 193 236 l 1
 66 236 l 1
 66 534 l 1
 440 534 l 1
 440 245 l 1
 338 0 l 1
 127 0 l 1
424 1274 m 1
 424 976 l 1
 66 976 l 1
 66 1274 l 1
 424 1274 l 1
EndSplineSet
EndChar

StartChar: seven
Encoding: 55 55 226
Width: 936
VWidth: 0
Flags: W
PickledData: "(dp1
S'com.typemytype.robofont.layerData'
p2
(dp3
s."
LayerCount: 2
Fore
SplineSet
500 1 m 1
 267 0 l 2
 238 0 130 1 102 1 c 1
 134 492 308 866 455 1232 c 0
 488 1313 511 1384 524 1435 c 1
 27 1435 l 1
 27 1761 l 1
 915 1761 l 1
 915 1499 l 1
 893 1292 786 1129 715 946 c 0
 610 676 523 368 500 1 c 1
EndSplineSet
EndChar

StartChar: six
Encoding: 54 54 227
Width: 1031
VWidth: 0
Flags: W
PickledData: "(dp1
S'com.typemytype.robofont.layerData'
p2
(dp3
s."
LayerCount: 2
Fore
SplineSet
982 533 m 0
 982 181 867 -22 523 -22 c 0
 156 -22 48 166 48 543 c 2
 48 904 l 2
 48 1180 56 1466 224 1574 c 0
 297 1621 408 1655 533 1655 c 0
 755 1655 984 1539 984 1310 c 2
 984 1120 l 1
 615 1120 l 1
 615 1156 l 2
 615 1244 612 1346 527 1346 c 0
 448 1346 422 1301 422 1220 c 2
 422 922 l 1
 455 984 523 1026 619 1026 c 0
 910 1026 982 850 982 533 c 0
510 302 m 0
 593 302 596 380 596 489 c 2
 596 571 l 2
 596 667 569 715 515 715 c 0
 453 715 422 673 422 590 c 2
 422 432 l 2
 422 345 451 302 510 302 c 0
EndSplineSet
EndChar

StartChar: slash
Encoding: 47 47 228
Width: 830
VWidth: 0
Flags: W
PickledData: "(dp1
S'com.typemytype.robofont.layerData'
p2
(dp3
s."
LayerCount: 2
Fore
SplineSet
439 1767 m 1
 803 1767 l 1
 392 0 l 1
 29 0 l 1
 439 1767 l 1
EndSplineSet
EndChar

StartChar: sterling
Encoding: 163 163 230
Width: 970
VWidth: 0
Flags: W
PickledData: "(dp1
S'com.typemytype.robofont.layerData'
p2
(dp3
s."
LayerCount: 2
Fore
SplineSet
924 0 m 1
 42 0 l 1
 42 281 l 1
 162 352 218 402 218 568 c 0
 218 612 215 647 209 673 c 1
 47 673 l 1
 47 905 l 1
 182 905 l 1
 168 964 l 2
 154 1023 127 1158 127 1224 c 0
 127 1489 282 1608 544 1608 c 0
 833 1608 933 1421 933 1125 c 1
 614 1125 l 1
 614 1212 617 1312 550 1312 c 0
 487 1312 494 1250 494 1186 c 2
 494 1173 l 2
 494 1142 513 1053 550 905 c 1
 834 905 l 1
 834 673 l 1
 585 673 l 1
 596 541 l 1
 589 422 530 337 454 291 c 1
 924 291 l 1
 924 0 l 1
EndSplineSet
EndChar

StartChar: summation
Encoding: 8721 8721 231
Width: 849
VWidth: 0
Flags: W
PickledData: "(dp1
S'com.typemytype.robofont.layerData'
p2
(dp3
s."
LayerCount: 2
Fore
SplineSet
43 0 m 1
 43 272 l 1
 253 751 l 1
 43 1229 l 1
 43 1501 l 1
 807 1501 l 1
 807 1200 l 1
 415 1200 l 1
 628 751 l 1
 415 301 l 1
 807 301 l 1
 807 0 l 1
 43 0 l 1
EndSplineSet
EndChar

StartChar: t
Encoding: 116 116 232
Width: 672
VWidth: 0
Flags: W
PickledData: "(dp1
S'com.typemytype.robofont.layerData'
p2
(dp3
s."
LayerCount: 2
Fore
SplineSet
149 231 m 2
 149 1169 l 1
 48 1169 l 1
 48 1442 l 1
 149 1442 l 1
 149 1761 l 1
 497 1761 l 1
 497 1442 l 1
 598 1442 l 1
 598 1169 l 1
 497 1169 l 1
 497 325 l 1
 497 323 l 2
 497 285 497 248 535 248 c 0
 544 248 589 249 598 252 c 1
 598 8 l 1
 582 3 482 -19 395 -19 c 0
 202 -19 149 62 149 231 c 2
EndSplineSet
EndChar

StartChar: thorn
Encoding: 254 254 234
Width: 1007
VWidth: 0
Flags: W
PickledData: "(dp1
S'com.typemytype.robofont.layerData'
p2
(dp3
s."
LayerCount: 2
Fore
SplineSet
957 1114 m 2
 957 391 l 2
 957 160 865 -18 641 -18 c 0
 544 -18 474 41 430 160 c 1
 430 -185 l 1
 62 -185 l 1
 62 1769 l 1
 430 1769 l 1
 430 1427 l 1
 490 1488 557 1519 630 1519 c 0
 874 1519 957 1360 957 1114 c 2
518 1239 m 0
 446 1239 430 1175 430 1085 c 2
 430 457 l 2
 430 349 437 263 520 263 c 0
 599 263 594 347 594 457 c 2
 594 1081 l 2
 594 1171 588 1239 518 1239 c 0
EndSplineSet
EndChar

StartChar: three
Encoding: 51 51 235
Width: 1008
VWidth: 0
Flags: W
PickledData: "(dp1
S'com.typemytype.robofont.layerData'
p2
(dp3
s."
LayerCount: 2
Fore
SplineSet
961 530 m 0
 961 178 825 -20 484 -20 c 0
 173 -20 39 143 39 474 c 2
 39 658 l 1
 400 658 l 1
 400 473 l 2
 400 380 414 306 501 306 c 0
 596 306 592 418 592 530 c 2
 592 574 l 2
 592 695 560 801 442 801 c 0
 427 801 416 800 408 799 c 1
 408 1115 l 1
 529 1115 595 1164 595 1291 c 0
 595 1391 566 1440 509 1440 c 0
 415 1440 426 1369 414 1286 c 1
 414 1233 l 1
 50 1233 l 1
 48 1295 l 1
 50 1618 196 1763 507 1763 c 0
 807 1763 957 1609 957 1295 c 0
 957 1122 918 1007 792 962 c 1
 942 889 961 766 961 530 c 0
EndSplineSet
EndChar

StartChar: threequarters
Encoding: 190 190 236
Width: 1511
VWidth: 0
Flags: W
PickledData: "(dp1
S'com.typemytype.robofont.layerData'
p2
(dp3
s."
LayerCount: 2
Fore
SplineSet
547 935 m 0
 547 743 471 635 279 635 c 0
 105 635 30 725 30 904 c 2
 30 1004 l 1
 232 1004 l 1
 232 903 l 2
 232 851 241 813 289 813 c 0
 340 813 340 865 340 935 c 0
 340 1011 332 1082 256 1082 c 0
 247 1082 241 1082 236 1081 c 1
 236 1254 l 1
 305 1254 341 1279 341 1349 c 0
 341 1403 325 1430 293 1430 c 0
 232 1430 243 1373 240 1317 c 1
 36 1317 l 1
 35 1351 l 1
 36 1532 118 1606 292 1606 c 0
 460 1606 544 1521 544 1351 c 0
 544 1258 522 1194 452 1170 c 1
 536 1132 547 1066 547 935 c 0
947 1767 m 1
 1231 1767 l 1
 740 0 l 1
 457 0 l 1
 947 1767 l 1
1436 943 m 1
 1436 324 l 1
 1475 324 l 1
 1475 153 l 1
 1436 153 l 1
 1436 1 l 1
 1229 1 l 1
 1229 153 l 1
 926 153 l 1
 926 302 l 1
 1113 943 l 1
 1436 943 l 1
1229 324 m 1
 1229 729 l 1
 1119 324 l 1
 1229 324 l 1
EndSplineSet
EndChar

StartChar: tilde
Encoding: 732 732 237
Width: 1015
VWidth: 0
Flags: W
PickledData: "(dp1
S'com.typemytype.robofont.layerData'
p2
(dp3
s."
LayerCount: 2
Fore
SplineSet
612 1602 m 0
 501.876 1602 468.757 1712 370 1712 c 0
 348.667 1712 329.333 1682.33 312 1623 c 1
 90 1729 l 1
 143.726 1860.78 214.273 1988 370 1988 c 0
 463.558 1988 523.727 1880 613 1880 c 0
 635 1880 654.667 1906.33 672 1959 c 1
 904 1903 l 1
 850.217 1756.32 776.696 1602 612 1602 c 0
EndSplineSet
EndChar

StartChar: trademark
Encoding: 8482 8482 238
Width: 1825
VWidth: 0
Flags: W
PickledData: "(dp1
S'com.typemytype.robofont.layerData'
p2
(dp3
s."
LayerCount: 2
Fore
SplineSet
188 1361 m 1
 30 1361 l 1
 30 1593 l 1
 614 1593 l 1
 614 1361 l 1
 455 1361 l 1
 455 386 l 1
 188 386 l 1
 188 1361 l 1
1504 386 m 1
 1504 1257 l 1
 1366 386 l 1
 1126 386 l 1
 979 1257 l 1
 979 386 l 1
 723 386 l 1
 723 1593 l 1
 1129 1593 l 1
 1242 963 l 1
 1354 1593 l 1
 1763 1593 l 1
 1763 386 l 1
 1504 386 l 1
EndSplineSet
EndChar

StartChar: two
Encoding: 50 50 239
Width: 1008
VWidth: 0
Flags: W
PickledData: "(dp1
S'com.typemytype.robofont.layerData'
p2
(dp3
s."
LayerCount: 2
Fore
SplineSet
969 1293 m 0
 969 823 635 645 477 332 c 1
 957 332 l 1
 957 0 l 1
 44 0 l 1
 44 84 l 2
 44 337 123 484 269 689 c 0
 308 743 388 844 507 992 c 0
 567 1067 597 1164 597 1286 c 0
 597 1369 579 1437 502 1437 c 0
 443 1437 414 1384 414 1280 c 2
 414 1065 l 1
 44 1065 l 1
 40 1173 l 1
 40 1553 138 1767 507 1767 c 0
 799 1767 969 1597 969 1293 c 0
EndSplineSet
EndChar

StartChar: u
Encoding: 117 117 240
Width: 1106
VWidth: 0
Flags: W
PickledData: "(dp1
S'com.typemytype.robofont.layerData'
p2
(dp3
s."
LayerCount: 2
Fore
SplineSet
547 264 m 0
 630 264 631 360 631 443 c 2
 631 455 l 1
 633 1500 l 1
 989 1500 l 1
 989 0 l 1
 631 0 l 1
 631 160 l 1
 585 45 536 -18 400 -18 c 0
 159 -18 107 143 107 383 c 2
 107 1500 l 1
 467 1500 l 1
 467 455 l 2
 467 342 459 264 547 264 c 0
EndSplineSet
EndChar

StartChar: underscore
Encoding: 95 95 245
Width: 748
VWidth: 0
Flags: W
PickledData: "(dp1
S'com.typemytype.robofont.layerData'
p2
(dp3
s."
LayerCount: 2
Fore
SplineSet
699 0 m 1
 699 -232 l 1
 48 -232 l 1
 48 0 l 1
 699 0 l 1
EndSplineSet
EndChar

StartChar: uni00B2
Encoding: 178 178 247
Width: 618
VWidth: 0
Flags: W
PickledData: "(dp1
S'com.typemytype.robofont.layerData'
p2
(dp3
s."
LayerCount: 2
Fore
SplineSet
573 1344 m 0
 573 1085 383 987 293 814 c 1
 566 814 l 1
 566 631 l 1
 47 631 l 1
 47 678 l 2
 47 890 175 1015 310 1178 c 0
 344 1218 361 1272 361 1341 c 0
 361 1396 343 1424 308 1424 c 0
 274 1424 257 1395 257 1337 c 2
 257 1218 l 1
 47 1218 l 1
 45 1278 l 1
 45 1496 99 1606 310 1606 c 0
 475 1606 573 1511 573 1344 c 0
EndSplineSet
EndChar

StartChar: uni00B3
Encoding: 179 179 248
Width: 610
VWidth: 0
Flags: W
PickledData: "(dp1
S'com.typemytype.robofont.layerData'
p2
(dp3
s."
LayerCount: 2
Fore
SplineSet
559 935 m 0
 559 743 483 635 291 635 c 0
 117 635 42 725 42 904 c 2
 42 1004 l 1
 244 1004 l 1
 244 903 l 2
 244 851 253 813 301 813 c 0
 352 813 352 865 352 935 c 0
 352 1011 344 1082 268 1082 c 0
 259 1082 253 1082 248 1081 c 1
 248 1254 l 1
 317 1254 353 1279 353 1349 c 0
 353 1403 337 1430 305 1430 c 0
 244 1430 255 1373 252 1317 c 1
 48 1317 l 1
 47 1351 l 1
 48 1532 130 1606 304 1606 c 0
 472 1606 556 1521 556 1351 c 0
 556 1258 534 1194 464 1170 c 1
 548 1132 559 1066 559 935 c 0
EndSplineSet
EndChar

StartChar: uni00B5
Encoding: 181 181 249
Width: 1006
VWidth: 0
Flags: W
PickledData: "(dp1
S'com.typemytype.robofont.layerData'
p2
(dp3
s."
LayerCount: 2
Fore
SplineSet
502 264 m 0
 585 264 586 360 586 443 c 2
 586 455 l 1
 588 1500 l 1
 944 1500 l 1
 944 0 l 1
 586 0 l 1
 586 160 l 1
 552 72 509 6 422 -11 c 1
 422 -186 l 1
 62 -186 l 1
 62 1500 l 1
 422 1500 l 1
 422 455 l 2
 422 342 414 264 502 264 c 0
EndSplineSet
EndChar

StartChar: uni00B9
Encoding: 185 185 250
Width: 421
VWidth: 0
Flags: W
PickledData: "(dp1
S'com.typemytype.robofont.layerData'
p2
(dp3
s."
LayerCount: 2
Fore
SplineSet
29 1487 m 1
 87 1487 203 1545 203 1607 c 1
 362 1607 l 1
 362 656 l 1
 152 656 l 1
 152 1364 l 1
 113 1344 72 1334 29 1334 c 1
 30 1377 31 1413 31 1444 c 0
 31 1469 30 1483 29 1487 c 1
EndSplineSet
EndChar

StartChar: uni030F
Encoding: 783 783 277
Width: 825
VWidth: 0
Flags: W
PickledData: "(dp1
S'com.typemytype.robofont.layerData'
p2
(dp3
s."
LayerCount: 2
Fore
SplineSet
601 1773 m 1
 785 1294 l 1
 619 1236 l 1
 371 1665 l 1
 601 1773 l 1
262 1773 m 1
 483 1294 l 1
 317 1236 l 1
 28 1665 l 1
 262 1773 l 1
EndSplineSet
EndChar

StartChar: uni2074
Encoding: 8308 8308 278
Width: 627
VWidth: 0
Flags: W
PickledData: "(dp1
S'com.typemytype.robofont.layerData'
p2
(dp3
s."
LayerCount: 2
Fore
SplineSet
540 1592 m 1
 540 973 l 1
 579 973 l 1
 579 802 l 1
 540 802 l 1
 540 650 l 1
 333 650 l 1
 333 802 l 1
 30 802 l 1
 30 951 l 1
 217 1592 l 1
 540 1592 l 1
333 973 m 1
 333 1378 l 1
 223 973 l 1
 333 973 l 1
EndSplineSet
EndChar

StartChar: uni2206
Encoding: 8710 8710 279
Width: 921
VWidth: 0
Flags: W
PickledData: "(dp1
S'com.typemytype.robofont.layerData'
p2
(dp3
s."
LayerCount: 2
Fore
SplineSet
34 0 m 1
 217 1353 l 1
 708 1353 l 1
 887 0 l 1
 34 0 l 1
376 230 m 1
 542 230 l 1
 475 1044 l 1
 443 1044 l 1
 376 230 l 1
EndSplineSet
EndChar

StartChar: uniFB01
Encoding: 64257 64257 281
Width: 1088
VWidth: 0
Flags: W
PickledData: "(dp1
S'com.typemytype.robofont.layerData'
p2
(dp3
s."
LayerCount: 2
Fore
SplineSet
498 1533 m 0
 456 1533 453 1500 453 1453 c 2
 453 1434 l 1
 531 1434 l 1
 531 1157 l 1
 460 1157 l 1
 460 0 l 1
 105 0 l 1
 105 1161 l 1
 40 1161 l 1
 40 1192 41 1283 44 1434 c 1
 105 1434 l 1
 105 1536 l 2
 105 1697 186 1778 347 1778 c 0
 424 1778 485 1768 531 1749 c 1
 531 1528 l 1
 516 1531 505 1533 498 1533 c 0
1026 1500 m 1
 1026 0 l 1
 668 0 l 1
 668 1500 l 1
 1026 1500 l 1
1026 1769 m 1
 1026 1567 l 1
 668 1567 l 1
 668 1769 l 1
 1026 1769 l 1
EndSplineSet
EndChar

StartChar: uniFB02
Encoding: 64258 64258 282
Width: 1101
VWidth: 0
Flags: W
PickledData: "(dp1
S'com.typemytype.robofont.layerData'
p2
(dp3
s."
LayerCount: 2
Fore
SplineSet
498 1533 m 0
 456 1533 453 1500 453 1453 c 2
 453 1434 l 1
 531 1434 l 1
 531 1157 l 1
 460 1157 l 1
 460 0 l 1
 105 0 l 1
 105 1161 l 1
 40 1161 l 1
 40 1192 41 1283 44 1434 c 1
 105 1434 l 1
 105 1536 l 2
 105 1697 186 1778 347 1778 c 0
 424 1778 485 1768 531 1749 c 1
 531 1528 l 1
 516 1531 505 1533 498 1533 c 0
675 1767 m 1
 1039 1767 l 1
 1039 0 l 1
 675 0 l 1
 675 1767 l 1
EndSplineSet
EndChar

StartChar: v
Encoding: 118 118 283
Width: 962
VWidth: 0
Flags: W
PickledData: "(dp1
S'com.typemytype.robofont.layerData'
p2
(dp3
s."
LayerCount: 2
Fore
SplineSet
573 1500 m 1
 931 1500 l 1
 686 0 l 1
 272 0 l 1
 31 1500 l 1
 390 1500 l 1
 464 741 l 1
 476 498 l 1
 490 743 l 1
 573 1500 l 1
EndSplineSet
EndChar

StartChar: w
Encoding: 119 119 284
Width: 1446
VWidth: 0
Flags: W
PickledData: "(dp1
S'com.typemytype.robofont.layerData'
p2
(dp3
s."
LayerCount: 2
Fore
SplineSet
466 584 m 1
 553 1500 l 1
 893 1500 l 1
 977 584 l 1
 1079 1500 l 1
 1406 1500 l 1
 1185 0 l 1
 829 0 l 1
 721 851 l 1
 617 0 l 1
 261 0 l 1
 40 1500 l 1
 367 1500 l 1
 466 584 l 1
EndSplineSet
EndChar

StartChar: x
Encoding: 120 120 285
Width: 932
VWidth: 0
Flags: W
PickledData: "(dp1
S'com.typemytype.robofont.layerData'
p2
(dp3
S'b'
(dp4
S'name'
p5
S'x'
sS'lib'
p6
(dp7
sS'unicodes'
p8
(tsS'width'
p9
I932
sS'contours'
p10
((dp11
S'points'
p12
((dp13
S'segmentType'
p14
S'line'
p15
sS'x'
F934
sS'smooth'
p16
I00
sS'y'
F0
s(dp17
g14
S'line'
p18
sS'x'
F583
sg16
I00
sS'y'
F0
s(dp19
g14
S'line'
p20
sS'x'
F458
sg16
I00
sS'y'
F603
s(dp21
g14
S'line'
p22
sS'x'
F347
sg16
I00
sS'y'
F0
s(dp23
g14
S'line'
p24
sS'x'
F-3
sg16
I00
sS'y'
F0
s(dp25
g14
S'line'
p26
sS'x'
F161
sg16
I00
sS'y'
F762
s(dp27
g14
S'line'
p28
sS'x'
F33
sg16
I00
sS'y'
F1501
s(dp29
g14
S'line'
p30
sS'x'
F381
sg16
I00
sS'y'
F1501
s(dp31
g14
S'line'
p32
sS'x'
F479
sg16
I00
sS'y'
F908
s(dp33
g14
S'line'
p34
sS'x'
F557
sg16
I00
sS'y'
F1501
s(dp35
g14
S'line'
p36
sS'x'
F911
sg16
I00
sS'y'
F1501
s(dp37
g14
S'line'
p38
sS'x'
F784
sg16
I00
sS'y'
F753
stp39
stp40
sS'components'
p41
(tsS'anchors'
p42
(tsss."
LayerCount: 2
Fore
SplineSet
328 0 m 1
 467 428 l 1
 603 0 l 1
 934 0 l 1
 658 779 l 1
 912 1501 l 1
 588 1501 l 1
 469 1058 l 1
 351 1501 l 1
 33 1501 l 1
 279 783 l 1
 -2 0 l 1
 328 0 l 1
EndSplineSet
EndChar

StartChar: y
Encoding: 121 121 286
Width: 952
VWidth: 0
Flags: W
PickledData: "(dp1
S'com.typemytype.robofont.layerData'
p2
(dp3
s."
LayerCount: 2
Fore
SplineSet
56 -250 m 1
 56 -23 l 1
 168 -23 l 2
 230 -23 265 -15 265 39 c 0
 265 52 263 69 260 91 c 2
 29 1501 l 1
 382 1501 l 1
 448 757 l 1
 472 425 l 1
 500 757 l 1
 580 1501 l 1
 935 1501 l 1
 657 -78 l 1
 641 -192 589 -250 460 -250 c 2
 56 -250 l 1
EndSplineSet
EndChar

StartChar: yen
Encoding: 165 165 289
Width: 948
VWidth: 0
Flags: W
PickledData: "(dp1
S'com.typemytype.robofont.layerData'
p2
(dp3
s."
LayerCount: 2
Fore
SplineSet
309 408 m 1
 309 475 l 1
 171 475 l 1
 171 699 l 1
 263 699 l 1
 28 1593 l 1
 377 1593 l 1
 475 1053 l 1
 573 1593 l 1
 921 1593 l 1
 687 699 l 1
 775 699 l 1
 775 475 l 1
 641 475 l 1
 641 408 l 1
 775 408 l 1
 775 176 l 1
 641 176 l 1
 641 0 l 1
 309 0 l 1
 309 176 l 1
 171 176 l 1
 171 408 l 1
 309 408 l 1
EndSplineSet
EndChar

StartChar: z
Encoding: 122 122 290
Width: 838
VWidth: 0
Flags: W
PickledData: "(dp1
S'com.typemytype.robofont.layerData'
p2
(dp3
s."
LayerCount: 2
Fore
SplineSet
761 301 m 1
 761 0 l 1
 81 0 l 1
 81 272 l 1
 430 1194 l 1
 106 1194 l 1
 106 1500 l 1
 786 1500 l 1
 786 1194 l 1
 447 301 l 1
 761 301 l 1
EndSplineSet
EndChar

StartChar: zero
Encoding: 48 48 292
Width: 1031
VWidth: 0
Flags: W
PickledData: "(dp1
S'com.typemytype.robofont.layerData'
p2
(dp3
s."
LayerCount: 2
Fore
SplineSet
515 -19 m 0
 217 -19 49 183 49 496 c 2
 49 1142 l 2
 49 1473 201 1655 515 1655 c 0
 829 1655 981 1473 981 1142 c 2
 981 496 l 2
 981 183 813 -19 515 -19 c 0
515 340 m 0
 569 340 602 398 602 460 c 2
 602 1186 l 2
 602 1268 595 1341 515 1341 c 0
 435 1341 428 1268 428 1186 c 2
 428 460 l 2
 428 398 461 340 515 340 c 0
EndSplineSet
EndChar
